<svg width="17" height="15" viewBox="0 0 17 15" fill="none" xmlns="http://www.w3.org/2000/svg">
<path d="M14.0797 15H0.832418C0.722966 15.0005 0.614499 14.9793 0.513282 14.9376C0.412066 14.896 0.320104 14.8347 0.242709 14.7573C0.165313 14.6799 0.104018 14.5879 0.0623609 14.4867C0.0207042 14.3855 -0.000487868 14.277 8.52264e-06 14.1676V0.920248C-0.000487868 0.810795 0.0207042 0.702329 0.0623609 0.601112C0.104018 0.499895 0.165313 0.407934 0.242709 0.330538C0.320104 0.253143 0.412066 0.191847 0.513282 0.15019C0.614499 0.108534 0.722966 0.0873417 0.832418 0.0878381H9.24275C9.46352 0.0878381 9.67525 0.175538 9.83136 0.331645C9.98746 0.487752 10.0752 0.699479 10.0752 0.920248C10.0752 1.14102 9.98746 1.35274 9.83136 1.50885C9.67525 1.66496 9.46352 1.75266 9.24275 1.75266H1.66483V13.3351H13.2473V8.89188C13.2473 8.67111 13.335 8.45939 13.4911 8.30328C13.6472 8.14717 13.859 8.05947 14.0797 8.05947C14.3005 8.05947 14.5122 8.14717 14.6683 8.30328C14.8244 8.45939 14.9121 8.67111 14.9121 8.89188V14.1676C14.9126 14.277 14.8914 14.3855 14.8498 14.4867C14.8081 14.5879 14.7468 14.6799 14.6694 14.7573C14.592 14.8347 14.5001 14.896 14.3989 14.9376C14.2976 14.9793 14.1892 15.0005 14.0797 15Z" fill="white"/>
<path d="M7.45758 10.6467H7.41633C7.298 10.6422 7.18205 10.612 7.07652 10.5583C6.97099 10.5046 6.8784 10.4285 6.80515 10.3355L3.80547 6.55216C3.73728 6.46648 3.68662 6.36821 3.6564 6.26296C3.62618 6.1577 3.61699 6.04752 3.62935 5.93872C3.64171 5.82991 3.67538 5.7246 3.72844 5.62881C3.7815 5.53302 3.85291 5.44861 3.93858 5.38041C4.02426 5.31221 4.12253 5.26156 4.22779 5.23134C4.33304 5.20112 4.44322 5.19193 4.55203 5.20429C4.66083 5.21665 4.76614 5.25032 4.86193 5.30338C4.95773 5.35644 5.04213 5.42784 5.11033 5.51352L7.49882 8.54694L15.4592 0.256594C15.6124 0.0969846 15.8226 0.00474899 16.0438 0.000178294C16.2649 -0.00439241 16.4788 0.0790763 16.6385 0.232222C16.7981 0.385368 16.8903 0.595646 16.8949 0.816798C16.8994 1.03795 16.816 1.25186 16.6628 1.41147L8.05751 10.388C7.98013 10.4693 7.88709 10.5342 7.78399 10.5787C7.68089 10.6231 7.56986 10.6463 7.45758 10.6467Z" fill="#4CC2FF"/>
</svg>
