<svg width="15" height="15" viewBox="0 0 15 15" fill="none" xmlns="http://www.w3.org/2000/svg">
<path d="M14.1627 8.57286e-06H0.837323C0.727225 -0.000490743 0.61812 0.0208262 0.516307 0.0627283C0.414494 0.10463 0.32199 0.166287 0.244139 0.244139C0.166287 0.32199 0.10463 0.414494 0.0627283 0.516307C0.0208262 0.61812 -0.000490743 0.727225 8.57286e-06 0.837323V14.1627C8.57286e-06 14.3848 0.0882253 14.5977 0.245252 14.7548C0.402279 14.9118 0.615253 15 0.837323 15H14.1627C14.3848 15 14.5977 14.9118 14.7548 14.7548C14.9118 14.5977 15 14.3848 15 14.1627V0.837323C15.0005 0.727225 14.9792 0.61812 14.9373 0.516307C14.8954 0.414494 14.8337 0.32199 14.7559 0.244139C14.678 0.166287 14.5855 0.10463 14.4837 0.0627283C14.3819 0.0208262 14.2728 -0.000490743 14.1627 8.57286e-06ZM13.3254 13.3216H1.67464V1.67464H13.3254V13.3216Z" fill="white"/>
</svg>
