<svg width="121" height="25" viewBox="0 0 121 25" fill="none" xmlns="http://www.w3.org/2000/svg">
<path d="M9.88218 8.22748V15.4371H7.46191V8.22924C7.67611 8.28317 7.89443 8.31916 8.11461 8.33685L8.29101 8.3492L8.67028 8.36155L9.04955 8.3492L9.22596 8.33685C9.44734 8.31858 9.66683 8.28199 9.88218 8.22748Z" fill="#CCCCCC"/>
<path d="M10.479 23.1336C10.479 23.1336 10.5548 21.606 10.5548 21.0768C10.5548 20.5476 8.67081 17.2435 8.67081 17.2435C8.67081 17.2435 6.78858 20.5476 6.78858 21.0768C6.78858 21.606 6.86443 23.1336 6.86443 23.1336H4.16016C4.16016 23.1336 4.27129 21.3184 4.37184 20.44C4.47239 19.5615 6.53103 15.4371 6.53103 15.4371H10.8106C10.8106 15.4371 12.871 19.5615 12.9715 20.44C13.0721 21.3184 13.1832 23.1336 13.1832 23.1336H10.479Z" fill="#0C0C0C"/>
<path d="M13.1828 23.2112H10.4785C10.4681 23.2113 10.4579 23.2091 10.4485 23.2048C10.439 23.2006 10.4306 23.1943 10.4238 23.1866C10.4164 23.1792 10.4107 23.1704 10.4071 23.1606C10.4034 23.1509 10.4019 23.1405 10.4026 23.1301C10.4026 23.116 10.4767 21.5989 10.4767 21.0768C10.4767 20.6763 9.23131 18.3901 8.67034 17.3987C8.1182 18.3901 6.86573 20.6763 6.86573 21.0768C6.86573 21.606 6.93982 23.116 6.93982 23.1301C6.94094 23.1405 6.93961 23.151 6.93594 23.1608C6.93226 23.1706 6.92634 23.1794 6.91865 23.1866C6.91183 23.1943 6.90342 23.2006 6.89399 23.2048C6.88455 23.2091 6.87431 23.2113 6.86396 23.2112H4.15969C4.14907 23.2113 4.13857 23.2091 4.12884 23.2049C4.11912 23.2006 4.11039 23.1944 4.10324 23.1866C4.08903 23.1713 4.08143 23.151 4.08207 23.1301C4.08207 23.1107 4.19497 21.3026 4.29552 20.4311C4.39607 19.5597 6.37885 15.5712 6.46352 15.4018C6.47 15.3891 6.47985 15.3785 6.49198 15.371C6.50412 15.3635 6.51807 15.3596 6.53232 15.3595H10.8101C10.8244 15.3596 10.8383 15.3635 10.8505 15.371C10.8626 15.3785 10.8724 15.3891 10.8789 15.4018C10.9636 15.5782 12.9464 19.5491 13.0469 20.4311C13.1475 21.3131 13.2586 23.1107 13.2586 23.1301C13.2596 23.1403 13.2584 23.1507 13.255 23.1604C13.2517 23.1702 13.2463 23.1791 13.2392 23.1866C13.2319 23.1942 13.2232 23.2004 13.2135 23.2046C13.2038 23.2088 13.1933 23.2111 13.1828 23.2112ZM10.5596 23.0578H13.0998C13.0769 22.6944 12.9817 21.2091 12.8935 20.4488C12.8017 19.6408 10.9795 15.954 10.7625 15.5094H6.57995C6.36297 15.9505 4.54072 19.6373 4.44723 20.4488C4.36079 21.2091 4.27082 22.6944 4.2426 23.0578H6.78282C6.76694 22.735 6.71049 21.5319 6.71049 21.0768C6.71049 20.5475 8.41103 17.5487 8.60507 17.1959C8.61231 17.1849 8.62214 17.176 8.63369 17.1698C8.64523 17.1636 8.65812 17.1604 8.67122 17.1604C8.68432 17.1604 8.69722 17.1636 8.70876 17.1698C8.7203 17.176 8.73013 17.1849 8.73737 17.1959C8.93142 17.5363 10.632 20.5334 10.632 21.0768C10.632 21.5319 10.5755 22.735 10.5596 23.0578Z" fill="black"/>
<path d="M10.4537 23.0825C10.3654 23.5093 10.331 23.9454 10.3514 24.3808C10.3525 24.406 10.3612 24.4302 10.3763 24.4503C10.3914 24.4705 10.4123 24.4856 10.4361 24.4937C10.9993 24.6819 11.5777 24.8212 12.1648 24.91C12.9816 25.0229 14.1794 25.1023 14.1794 24.6683C14.1794 24.2344 14.2517 23.7052 14.1035 23.5552C13.9553 23.4053 13.6607 23.2906 13.5214 22.9731C13.4387 22.7496 13.3155 22.5433 13.158 22.3645C13.158 22.3645 12.3042 23.2853 10.4537 23.0825Z" fill="#CCCCCC"/>
<path d="M13.1402 22.5885C13.2391 22.7263 13.3198 22.8763 13.3801 23.0348C13.4829 23.246 13.6439 23.4235 13.844 23.5464C13.8967 23.5822 13.9468 23.6217 13.994 23.6646C14.0575 23.7281 14.0434 24.1021 14.0345 24.3261C14.0345 24.439 14.0257 24.5554 14.0257 24.6683C14.0257 24.7283 13.8705 24.8447 13.2795 24.8447C12.9129 24.8388 12.5471 24.8099 12.1841 24.7583C11.6141 24.6702 11.0524 24.5351 10.5047 24.3543C10.4924 23.9843 10.5202 23.6141 10.5876 23.25C10.7228 23.2606 10.8569 23.2659 10.9898 23.2659C12.1752 23.2659 12.8773 22.8108 13.149 22.5885H13.1402ZM13.1666 22.3645C13.1666 22.3645 12.4663 23.1089 10.981 23.1089C10.8041 23.109 10.6275 23.0989 10.4518 23.0789C10.3634 23.5057 10.3291 23.9419 10.3495 24.3773C10.3506 24.4024 10.3593 24.4266 10.3744 24.4468C10.3895 24.4669 10.4103 24.482 10.4341 24.4902C10.9973 24.6784 11.5757 24.8177 12.1629 24.9065C12.5321 24.9609 12.9046 24.9909 13.2778 24.9964C13.7752 24.9964 14.1774 24.9171 14.1774 24.6648C14.1774 24.2291 14.2497 23.7016 14.1016 23.5517C13.9534 23.4017 13.6588 23.2871 13.5194 22.9696C13.4367 22.7461 13.3135 22.5398 13.156 22.361L13.1666 22.3645Z" fill="black"/>
<path d="M13.4264 23.4512C12.9991 23.7381 12.4878 23.8729 11.9746 23.834L13.4264 23.4512Z" fill="#CCCCCC"/>
<path d="M12.1281 23.9151H11.9711C11.9601 23.9168 11.9488 23.9161 11.938 23.913C11.9273 23.9099 11.9173 23.9046 11.9089 23.8973C11.9004 23.89 11.8936 23.8809 11.8889 23.8708C11.8843 23.8606 11.8818 23.8496 11.8818 23.8384C11.8818 23.8272 11.8843 23.8162 11.8889 23.806C11.8936 23.7959 11.9004 23.7868 11.9089 23.7795C11.9173 23.7722 11.9273 23.7669 11.938 23.7638C11.9488 23.7607 11.9601 23.76 11.9711 23.7617C12.4653 23.799 12.9578 23.6698 13.37 23.3947C13.3779 23.3873 13.3872 23.3816 13.3973 23.378C13.4075 23.3744 13.4183 23.3729 13.4291 23.3738C13.4399 23.3746 13.4504 23.3776 13.4599 23.3827C13.4694 23.3878 13.4778 23.3948 13.4844 23.4033C13.4911 23.4118 13.4959 23.4216 13.4986 23.4321C13.5012 23.4426 13.5017 23.4535 13.4998 23.4641C13.498 23.4748 13.494 23.4849 13.4881 23.4939C13.4821 23.503 13.4744 23.5106 13.4653 23.5165C13.0712 23.7838 12.6043 23.9231 12.1281 23.9151Z" fill="black"/>
<path d="M6.88372 23.0825C6.97206 23.5093 7.00643 23.9454 6.98603 24.3808C6.98504 24.4057 6.97661 24.4298 6.96184 24.4499C6.94706 24.47 6.92662 24.4853 6.90312 24.4937C6.33978 24.6815 5.76143 24.8208 5.17436 24.91C4.35585 25.0229 3.15806 25.1023 3.15806 24.6683C3.15806 24.2344 3.08574 23.7052 3.23568 23.5552C3.38562 23.4053 3.67846 23.2906 3.81781 22.9731C3.8992 22.7494 4.02187 22.5429 4.17944 22.3645C4.17944 22.3645 5.03148 23.2853 6.88372 23.0825Z" fill="#CCCCCC"/>
<path d="M4.19543 22.5885C4.46709 22.8108 5.16918 23.2659 6.35462 23.2659C6.48692 23.2659 6.62099 23.2659 6.75858 23.2501C6.82129 23.6146 6.84554 23.9847 6.83091 24.3543C6.28328 24.5353 5.72155 24.6704 5.15154 24.7583C4.78912 24.8098 4.42384 24.8387 4.05783 24.8447C3.46688 24.8447 3.30988 24.7283 3.30988 24.6683C3.30988 24.5554 3.30988 24.439 3.30988 24.3261C3.30106 24.1021 3.28695 23.7281 3.35045 23.6646C3.39758 23.6217 3.44769 23.5822 3.5004 23.5464C3.70089 23.4234 3.86237 23.246 3.9661 23.0348C4.02596 22.8764 4.106 22.7264 4.20425 22.5885H4.19543ZM4.18661 22.3645C4.02903 22.5429 3.90637 22.7494 3.82498 22.9731C3.68562 23.2906 3.39103 23.4071 3.24285 23.5552C3.09467 23.7034 3.16523 24.2326 3.16523 24.6683C3.16523 24.9206 3.56743 25 4.06665 25C4.43984 24.9943 4.81226 24.9643 5.18153 24.91C5.76859 24.8208 6.34695 24.6815 6.91029 24.4937C6.93378 24.4853 6.95423 24.47 6.969 24.4499C6.98377 24.4298 6.9922 24.4057 6.9932 24.3808C7.0136 23.9454 6.97922 23.5093 6.89088 23.0825C6.71519 23.1025 6.5385 23.1125 6.36167 23.1125C4.87635 23.1125 4.18484 22.3645 4.18484 22.3645H4.18661Z" fill="black"/>
<path d="M3.90918 23.4512C4.33645 23.7381 4.84781 23.8729 5.36099 23.834L3.90918 23.4512Z" fill="#CCCCCC"/>
<path d="M5.20895 23.9151C4.72867 23.9235 4.25765 23.7824 3.86122 23.5111C3.84717 23.4978 3.83858 23.4798 3.83713 23.4605C3.83569 23.4412 3.84149 23.4221 3.85341 23.4069C3.86532 23.3916 3.8825 23.3814 3.90156 23.3782C3.92062 23.3749 3.94021 23.3789 3.95648 23.3894C4.36872 23.6645 4.86118 23.7936 5.35536 23.7563C5.36556 23.7556 5.3758 23.7569 5.38549 23.7601C5.39518 23.7634 5.40414 23.7685 5.41184 23.7752C5.41955 23.782 5.42585 23.7901 5.43038 23.7993C5.43492 23.8085 5.4376 23.8184 5.43827 23.8286C5.43924 23.8489 5.43221 23.8688 5.41868 23.884C5.40516 23.8992 5.38622 23.9084 5.36594 23.9098L5.20895 23.9151Z" fill="black"/>
<path d="M9.83335 8.19751C9.83335 8.19751 9.78219 8.97545 8.62675 8.97545C7.4713 8.97545 7.41309 8.19751 7.41309 8.19751" fill="#FDC997"/>
<path d="M8.62621 9.05307C7.41255 9.05307 7.34375 8.21162 7.34375 8.2028C7.34654 8.18445 7.35582 8.1677 7.36989 8.15561C7.38397 8.14351 7.40192 8.13685 7.42049 8.13685C7.43905 8.13685 7.457 8.14351 7.47108 8.15561C7.48516 8.1677 7.49443 8.18445 7.49722 8.2028C7.49722 8.23103 7.56249 8.90842 8.62621 8.90842C9.68993 8.90842 9.75343 8.23103 9.75696 8.2028C9.75739 8.19275 9.75987 8.18289 9.76424 8.17383C9.7686 8.16476 9.77477 8.15668 9.78236 8.15008C9.78996 8.14348 9.79882 8.13849 9.8084 8.13542C9.81798 8.13236 9.82809 8.13127 9.8381 8.13224C9.85838 8.1336 9.87732 8.14287 9.89084 8.15804C9.90437 8.17321 9.9114 8.19308 9.91043 8.21339C9.91043 8.21339 9.83987 9.05307 8.62621 9.05307Z" fill="black"/>
<path d="M11.2406 6.32231V6.37347C11.2406 6.66277 11.156 7.67533 10.1822 8.12693L10.1575 8.13928C9.85567 8.24943 9.53966 8.31596 9.21903 8.33685L9.04263 8.3492L8.66336 8.36155L8.29468 8.3492L8.11827 8.33685C7.79764 8.31596 7.48164 8.24943 7.1798 8.13928L7.1551 8.12693C6.18488 7.67533 6.09668 6.66277 6.09668 6.37347V6.32231L6.17783 6.24469V4.99046L6.46007 4.79289C6.45243 4.58154 6.4744 4.37015 6.52534 4.16489C6.58003 3.96379 6.62236 3.83325 6.79171 3.78209C6.97444 4.15862 7.2038 4.51066 7.4744 4.82993C7.33017 4.49564 7.25516 4.13559 7.25389 3.77151C7.73392 3.86453 8.20581 3.99548 8.66512 4.16313C8.66512 4.16313 9.64946 3.81032 10.1628 3.76269C10.2625 3.75196 10.363 3.75196 10.4627 3.76269C10.372 3.90027 10.2693 4.02955 10.1557 4.14901C10.2612 4.15095 10.366 4.13165 10.4639 4.09225C10.5618 4.05285 10.6508 3.99417 10.7255 3.91969C10.7652 3.99673 10.7948 4.07854 10.8137 4.16313C10.8646 4.36838 10.886 4.57984 10.8772 4.79112L11.1612 4.9887V6.24469L11.2406 6.32231Z" fill="#FDC997"/>
<path d="M11.0854 3.30935V6.37349C11.0854 6.56753 11.0395 7.55893 10.1169 7.98935H10.1011C9.81451 8.09372 9.51454 8.15668 9.21021 8.17634L9.04263 8.18692L8.66865 8.20104L8.29468 8.19398L8.12709 8.1834C7.82339 8.16626 7.52356 8.10689 7.23625 8.00699L7.21508 7.99641C6.29602 7.56775 6.25015 6.57635 6.25015 6.38231V3.30935H11.0836H11.0854ZM11.2389 3.15411H6.09668V6.37349C6.09668 6.66279 6.18135 7.67535 7.1551 8.12695L7.1798 8.1393C7.48164 8.24945 7.79764 8.31598 8.11827 8.33687L8.29468 8.34922L8.67394 8.36157L9.05321 8.34922L9.22962 8.33687C9.55025 8.31598 9.86625 8.24945 10.1681 8.1393L10.1928 8.12695C11.163 7.67535 11.2512 6.66279 11.2512 6.37349V3.15411H11.2389Z" fill="black"/>
<path d="M11.3657 3.14352V6.4511L11.1646 6.24471V4.99048L10.8806 4.7929C10.8893 4.58162 10.868 4.37016 10.8171 4.1649C10.7342 3.85796 10.6813 3.7186 10.1662 3.76447C9.65106 3.81033 8.66849 4.1649 8.66849 4.1649C8.66849 4.1649 7.68415 3.8121 7.17082 3.76447C6.65748 3.71684 6.6028 3.85796 6.51989 4.1649C6.46894 4.37017 6.44697 4.58155 6.45462 4.7929L6.17766 4.99048V6.24471L5.97656 6.4511V3.14352H11.3657Z" fill="black"/>
<path d="M5.97158 4.2337C5.97158 4.2337 5.83398 3.35168 5.68933 3.21232C5.54468 3.07296 5.13719 3.12235 4.61503 3.4734C4.61503 3.4734 5.36475 2.47495 5.90984 2.49788C5.90984 2.49788 5.07015 1.78168 4.23047 2.49788C4.23047 2.49788 4.99077 1.43945 6.10212 1.53295C6.10212 1.53295 5.81281 1.09194 4.88846 0.853793C4.88846 0.853793 6.50961 0.933175 6.9418 1.5453C6.99444 1.13593 7.01332 0.722929 6.99825 0.310468C6.99825 0.310468 7.80442 1.15192 7.5892 1.84342C7.5892 1.84342 8.3548 0.698557 8.27542 0.21521C8.27542 0.21521 8.5312 1.50296 8.52591 1.94044C8.52591 1.94044 8.65998 0.583895 9.25975 0.261075C9.25975 0.261075 9.14862 0.917299 9.24035 1.18543C9.24035 1.18543 10.2264 0.700321 11.1808 0.726782C11.1808 0.726782 10.0024 1.51531 10.1224 1.83284C10.1224 1.83284 10.918 1.37419 11.7647 1.65643C11.7647 1.65643 10.9444 2.0798 10.8721 2.43085C10.8721 2.43085 11.4313 2.0163 12.6943 2.49964C12.6943 2.49964 11.9499 2.58608 11.7576 2.86304C11.5654 3.13999 11.366 4.2337 11.366 4.2337L10.8827 3.45928L9.75192 3.39049L6.73012 3.52808L5.97158 4.2337Z" fill="black"/>
<path d="M10.2352 1.36536C10.7352 1.11466 11.2969 1.01359 11.8528 1.07429C11.8528 1.07429 10.6092 1.54705 10.5069 1.91221C10.4451 2.13095 10.0165 2.06568 9.95826 1.83989C9.91416 1.68641 10.2352 1.36536 10.2352 1.36536Z" fill="black"/>
<path d="M7.26465 1.50825C7.26465 1.50825 7.68978 1.10605 7.52573 0.21521C7.52573 0.21521 8.01437 1.11664 7.73036 2.05334C7.44634 2.99005 7.26465 1.50825 7.26465 1.50825Z" fill="black"/>
<path d="M8.28027 1.24718C8.41589 0.797922 8.62903 0.37584 8.91004 0C8.91004 0 8.78479 1.23483 8.91004 1.51708C9.03528 1.79932 8.40023 2.78013 8.40023 2.78013L8.28027 1.24718Z" fill="black"/>
<path d="M6.57791 1.67585C6.57791 1.67585 6.36799 0.705626 5.91992 0.299896C5.91992 0.299896 7.07713 0.96494 7.21826 1.88753C7.35938 2.81013 6.57791 1.67585 6.57791 1.67585Z" fill="black"/>
<path d="M10.928 2.05333C11.3839 1.88803 11.8768 1.85261 12.3516 1.95101C12.3516 1.95101 11.3585 2.37086 11.2403 2.83303C11.1221 3.29521 10.457 2.52609 10.457 2.52609L10.928 2.05333Z" fill="black"/>
<path d="M6.09655 2.08685C6.09655 2.08685 4.97815 2.26326 4.47363 2.87009C4.47363 2.87009 5.82312 2.52963 6.23767 2.84186C6.65222 3.1541 6.09655 2.08685 6.09655 2.08685Z" fill="black"/>
<path d="M9.10742 1.33713C9.10742 1.33713 9.10742 0.837908 9.68956 0.338684C9.68956 0.338684 9.55372 1.43063 9.73542 1.67583C9.91712 1.92103 9.10742 1.33713 9.10742 1.33713Z" fill="black"/>
<path d="M8.19452 1.41124C8.19452 1.41124 8.08692 0.576845 7.84172 0.20816C7.75821 0.720113 7.64691 1.22714 7.50831 1.727C7.37248 2.07981 8.09045 1.76757 8.09045 1.76757L8.19452 1.41124Z" fill="black"/>
<path d="M9.44824 1.20131C9.44824 1.20131 9.77812 0.541554 10.2209 0.529205C10.1452 0.600151 10.0865 0.687306 10.0492 0.784146C10.0119 0.880986 9.99706 0.985001 10.0057 1.08841L9.44824 1.20131Z" fill="black"/>
<path d="M6.3067 1.66175C6.32606 1.59619 6.32324 1.52607 6.29868 1.46228C6.27412 1.39849 6.22919 1.34459 6.17087 1.30894C5.96624 1.1784 5.12656 1.26836 4.74023 1.48534C4.74023 1.48534 5.60285 1.56825 5.70517 1.77112C5.80748 1.97398 6.26613 1.89989 6.3067 1.66175Z" fill="black"/>
<path d="M11.2568 3.21232C11.7575 3.03432 12.3032 3.02873 12.8074 3.19644C12.8074 3.19644 11.7084 3.267 11.4861 3.67097C11.2639 4.07494 10.7646 3.15411 10.7646 3.15411L11.2568 3.21232Z" fill="black"/>
<path d="M11.2566 2.76072C11.2566 2.76072 12.3521 2.61784 12.9801 2.86657C12.9801 2.86657 11.7206 2.8207 11.3801 3.35873C11.0396 3.89677 11.2566 2.76072 11.2566 2.76072Z" fill="black"/>
<path d="M7.33183 3.15938C7.18349 3.71601 7.2321 4.3068 7.46942 4.8317C7.46942 4.8317 6.62092 3.82972 6.70735 3.35166C6.79379 2.87361 7.33183 3.15938 7.33183 3.15938Z" fill="black"/>
<path d="M10.9001 3.62866C10.8534 3.78691 10.7551 3.92498 10.6208 4.02089C10.4865 4.11679 10.324 4.16501 10.1592 4.15787C10.1592 4.15787 10.6743 3.62866 10.6425 3.26526C10.6108 2.90187 10.9001 3.62866 10.9001 3.62866Z" fill="black"/>
<path d="M8.12505 6.0295C8.2858 6.0295 8.41612 5.78072 8.41612 5.47383C8.41612 5.16694 8.2858 4.91815 8.12505 4.91815C7.9643 4.91815 7.83398 5.16694 7.83398 5.47383C7.83398 5.78072 7.9643 6.0295 8.12505 6.0295Z" fill="black"/>
<path d="M9.33876 6.02951C9.47516 6.02951 9.58573 5.81785 9.58573 5.55675C9.58573 5.29565 9.47516 5.08398 9.33876 5.08398C9.20237 5.08398 9.0918 5.29565 9.0918 5.55675C9.0918 5.81785 9.20237 6.02951 9.33876 6.02951Z" fill="black"/>
<path d="M7.63672 4.71C7.77039 4.59562 7.94255 4.53634 8.1183 4.54418C8.20641 4.5497 8.29237 4.57375 8.37056 4.61474C8.44491 4.65829 8.51116 4.71439 8.56637 4.78056C8.48346 4.75762 8.40937 4.72058 8.33528 4.69941C8.26458 4.67892 8.19179 4.66649 8.1183 4.66237C7.95649 4.65987 7.79491 4.67585 7.63672 4.71Z" fill="black"/>
<path d="M9.01074 4.90935C9.04766 4.85434 9.09584 4.80781 9.15211 4.77283C9.20837 4.73786 9.27142 4.71524 9.33709 4.70648C9.40411 4.69619 9.47265 4.70286 9.53643 4.72589C9.5977 4.74889 9.65356 4.78433 9.70048 4.82996C9.63345 4.82996 9.57347 4.81762 9.52408 4.81585C9.46957 4.80969 9.41453 4.80969 9.36002 4.81585C9.24149 4.83853 9.12475 4.86977 9.01074 4.90935Z" fill="black"/>
<path d="M9.88243 6.80215C9.80657 7.45132 9.30558 7.91702 8.74109 7.88174H8.65289C8.41149 7.83206 8.19183 7.70772 8.025 7.52632C7.85816 7.34492 7.75259 7.11565 7.72324 6.87095C7.70553 6.73983 7.70553 6.60692 7.72324 6.4758L9.88243 6.80215Z" fill="#BA314F"/>
<path d="M8.79029 7.95582H8.72854L8.63329 7.93818C8.37785 7.88854 8.14462 7.75946 7.9669 7.56939C7.78918 7.37931 7.67605 7.13795 7.64366 6.87976C7.6222 6.74318 7.61924 6.60434 7.63484 6.46697L7.64366 6.39288L9.95279 6.74569V6.81449C9.86811 7.46542 9.36713 7.95582 8.79029 7.95582ZM7.77067 6.54459C7.76528 6.64483 7.7706 6.74536 7.78655 6.84448C7.81077 7.07449 7.90705 7.29097 8.06166 7.463C8.21626 7.63502 8.42126 7.7538 8.6474 7.80235L8.73031 7.81117C9.23659 7.84116 9.68818 7.43014 9.78873 6.86212L7.77067 6.54459Z" fill="black"/>
<path d="M8.73172 7.88174H8.64352C8.40212 7.83205 8.18246 7.70771 8.01563 7.52632C7.84879 7.34492 7.74322 7.11564 7.71387 6.87094C7.87809 6.8835 8.03712 6.93421 8.17829 7.01904C8.31947 7.10387 8.4389 7.22048 8.52709 7.35958C8.63203 7.51691 8.70182 7.695 8.73172 7.88174Z" fill="#FF557A"/>
<path d="M8.82414 7.95936H8.73417L8.63362 7.93819C8.37819 7.88854 8.14496 7.75947 7.96724 7.5694C7.78952 7.37932 7.67639 7.13796 7.644 6.87977L7.62988 6.79156H7.71985C7.89582 6.80578 8.066 6.86105 8.21673 6.95296C8.36747 7.04487 8.49454 7.17085 8.58776 7.32078C8.69932 7.48948 8.77332 7.68018 8.80473 7.87998L8.82414 7.95936ZM7.80982 6.94327C7.84979 7.1527 7.95058 7.34571 8.0996 7.49818C8.24863 7.65066 8.43928 7.75584 8.64773 7.8006C8.61398 7.65469 8.55423 7.51606 8.47133 7.39134C8.39727 7.27455 8.29976 7.17441 8.18498 7.09728C8.0702 7.02015 7.94064 6.96771 7.80452 6.94327H7.80982Z" fill="black"/>
<path d="M8.66844 16.9613C8.64785 16.9613 8.62811 16.9531 8.61355 16.9385C8.599 16.924 8.59082 16.9042 8.59082 16.8836V15.6841C8.59082 15.6635 8.599 15.6438 8.61355 15.6292C8.62811 15.6147 8.64785 15.6065 8.66844 15.6065C8.68872 15.6069 8.70801 15.6153 8.72219 15.6298C8.73636 15.6443 8.7443 15.6638 8.74429 15.6841V16.8836C8.74453 16.8938 8.74274 16.9038 8.73903 16.9132C8.73533 16.9226 8.72978 16.9312 8.72271 16.9384C8.71564 16.9457 8.7072 16.9514 8.69788 16.9553C8.68856 16.9592 8.67855 16.9613 8.66844 16.9613Z" fill="black"/>
<path d="M2.96906 14.8374L2.6039 15.6876L2.48218 15.9699L2.37281 16.2292C2.30821 16.3858 2.20047 16.5208 2.06212 16.6186C1.92378 16.7163 1.76052 16.7727 1.59134 16.7813C1.44086 16.7745 1.29223 16.7454 1.15033 16.6949L1.06213 16.6667L0.896309 16.6032L0.735781 16.5273L0.663455 16.4903C0.530442 16.4211 0.40806 16.3332 0.300062 16.2292H0.291242C0.182485 16.0992 0.112552 15.9413 0.0894631 15.7734C0.0663743 15.6056 0.0910649 15.4346 0.160703 15.2801L0.270074 15.0279L0.391793 14.7456L0.756949 13.8954L2.96906 14.8374Z" fill="#FDC997"/>
<path d="M0.836006 14.0894L2.76587 14.9185L2.46069 15.6241L2.34073 15.9064L2.23136 16.1604C2.17898 16.2904 2.09122 16.4031 1.97804 16.4857C1.86485 16.5683 1.73077 16.6176 1.59102 16.6279C1.45728 16.6208 1.32531 16.5941 1.1994 16.5485L1.12884 16.5238L0.968309 16.462L0.814837 16.3879L0.74604 16.3544C0.623812 16.2926 0.51145 16.2129 0.412636 16.118C0.323476 16.0101 0.26658 15.8791 0.248482 15.7403C0.230384 15.6014 0.251817 15.4603 0.310321 15.333L0.417928 15.079L0.53259 14.7968L0.836006 14.0912V14.0894ZM0.756624 13.8883L0.391467 14.7368L0.269748 15.0191C0.269748 15.0191 0.230939 15.1108 0.160378 15.2713C0.0889304 15.4269 0.0632641 15.5996 0.0863814 15.7692C0.109499 15.9389 0.180444 16.0984 0.290917 16.2292L0.299737 16.2398C0.408932 16.3434 0.532513 16.4307 0.666658 16.4991L0.738983 16.5361L0.899511 16.612L1.06533 16.6755L1.14118 16.7037C1.28309 16.7542 1.43172 16.7834 1.5822 16.7901H1.59102C1.76118 16.7808 1.92514 16.7231 2.06359 16.6237C2.20204 16.5243 2.30921 16.3874 2.37249 16.2292L2.48186 15.9769L2.60358 15.6947L2.96873 14.8444L0.756624 13.8865V13.8883Z" fill="black"/>
<path d="M14.375 14.8374L14.7402 15.6876L14.8619 15.9699L14.9712 16.2292C15.0344 16.3867 15.1411 16.523 15.2788 16.622C15.4166 16.721 15.5798 16.7788 15.7492 16.7884H15.7615C15.9114 16.7817 16.0595 16.7525 16.2008 16.7019L16.2784 16.6737L16.4442 16.6102L16.6047 16.5344L16.6771 16.4973C16.8118 16.4263 16.9354 16.3359 17.044 16.2292L17.0528 16.2186C17.1616 16.0887 17.2315 15.9307 17.2546 15.7628C17.2777 15.595 17.253 15.424 17.1834 15.2695L17.074 15.0173L16.9523 14.735L16.5853 13.8865L14.375 14.8374Z" fill="#FDC997"/>
<path d="M16.506 14.0894L16.8111 14.795L16.9311 15.0773L17.0405 15.3313C17.0994 15.4596 17.121 15.6019 17.1029 15.742C17.0848 15.882 17.0277 16.0142 16.9382 16.1233C16.8392 16.2137 16.7289 16.2908 16.61 16.3527L16.543 16.3879L16.3878 16.4603L16.229 16.522L16.1567 16.5485C16.0279 16.5949 15.893 16.6216 15.7562 16.6279C15.6166 16.6179 15.4826 16.569 15.3694 16.4867C15.2562 16.4044 15.1684 16.2919 15.1159 16.1621L14.9977 15.9081L14.876 15.6259L14.5726 14.9203L16.5007 14.0912L16.506 14.0894ZM16.5853 13.8865L14.375 14.8374L14.7402 15.6876L14.8619 15.9699L14.9712 16.2292C15.0344 16.3867 15.1411 16.523 15.2788 16.622C15.4166 16.721 15.5798 16.7788 15.7492 16.7884H15.7615C15.9114 16.7817 16.0595 16.7525 16.2008 16.7019L16.2784 16.6737L16.4442 16.6102L16.6047 16.5344L16.6771 16.4973C16.8118 16.4263 16.9354 16.3359 17.044 16.2292L17.0528 16.2186C17.1616 16.0887 17.2315 15.9307 17.2546 15.7628C17.2777 15.595 17.253 15.424 17.1834 15.2695L17.074 15.0173L16.9523 14.735L16.5853 13.8865Z" fill="black"/>
<path d="M5.10505 17.7568C5.10505 17.7568 6.35399 16.0051 6.35399 14.2887C6.35399 12.5723 4.76635 10.3461 4.76635 10.3461C4.76635 10.3461 3.09404 14.7051 2.92293 16.305C2.92293 16.305 2.78533 15.4424 0.0810547 14.5798C0.0810547 14.5798 2.63009 10.7624 3.21752 8.889C3.35512 8.45152 6.1229 7.77589 7.46181 8.21691V17.7568H5.10505Z" fill="#0C0C0C"/>
<path d="M7.46201 17.8345H5.10525C5.091 17.8344 5.07705 17.8304 5.06491 17.823C5.05278 17.8155 5.04293 17.8048 5.03646 17.7921C5.02912 17.7802 5.02524 17.7665 5.02524 17.7524C5.02524 17.7384 5.02912 17.7247 5.03646 17.7128C5.0488 17.6951 6.27129 15.9593 6.27129 14.294C6.27129 12.8528 5.10173 11.0023 4.77714 10.5172C4.49842 11.2705 3.1507 14.9009 3.00252 16.3139C2.99973 16.3322 2.99045 16.349 2.97637 16.3611C2.96229 16.3732 2.94434 16.3798 2.92578 16.3798C2.90722 16.3798 2.88927 16.3732 2.87519 16.3611C2.86111 16.349 2.85183 16.3322 2.84904 16.3139C2.84904 16.3139 2.65853 15.483 0.0565662 14.6539C0.0445847 14.6508 0.0335288 14.6448 0.0243222 14.6365C0.0151157 14.6282 0.00802576 14.6179 0.00364492 14.6063C0.000175128 14.5948 -0.000832813 14.5828 0.000687419 14.5709C0.00220765 14.5591 0.00622159 14.5477 0.0124651 14.5375C0.0389258 14.4987 2.56327 10.706 3.14011 8.86608C3.1701 8.76906 3.27771 8.6738 3.47175 8.57502C4.29027 8.15517 6.38066 7.7812 7.48142 8.14459C7.49696 8.14939 7.51061 8.15896 7.52042 8.17194C7.53023 8.18492 7.53572 8.20065 7.5361 8.21692V17.7569C7.53612 17.7768 7.52843 17.7961 7.51463 17.8105C7.50083 17.825 7.48198 17.8336 7.46201 17.8345ZM5.24991 17.6792H7.3844V8.27336C6.27481 7.9382 4.23735 8.35451 3.54408 8.71261C3.33239 8.82198 3.29711 8.88902 3.29005 8.91195C2.76084 10.6178 0.580487 13.9624 0.201218 14.5375C2.01818 15.1302 2.64971 15.7264 2.8808 16.0528C3.16834 14.3117 4.62543 10.4961 4.6907 10.3267C4.69563 10.3137 4.70395 10.3023 4.71481 10.2936C4.72568 10.2849 4.73867 10.2793 4.75245 10.2773C4.76651 10.2755 4.78079 10.2775 4.79382 10.2831C4.80685 10.2887 4.81815 10.2976 4.82654 10.3091C4.8918 10.4026 6.43005 12.5829 6.43005 14.2976C6.43005 15.7705 5.53392 17.2506 5.24991 17.6792Z" fill="black"/>
<path d="M12.2392 17.7569C12.2392 17.7569 10.9903 16.0052 10.9903 14.2887C10.9903 12.5723 12.5779 10.3461 12.5779 10.3461C12.5779 10.3461 14.2467 14.6998 14.4178 16.2998C14.4178 16.2998 14.5554 15.4371 17.2597 14.5745C17.2597 14.5745 14.7106 10.7571 14.1232 8.88373C13.9856 8.44624 11.2178 7.77061 9.87891 8.21163V17.7516L12.2392 17.7569Z" fill="#0C0C0C"/>
<path d="M12.2391 17.8345H9.88231C9.86172 17.8345 9.84198 17.8263 9.82742 17.8117C9.81286 17.7972 9.80469 17.7774 9.80469 17.7569V8.21692C9.80468 8.2008 9.80981 8.18511 9.81933 8.1721C9.82884 8.1591 9.84225 8.14946 9.85761 8.14459C10.9601 7.7812 13.0505 8.15517 13.869 8.57502C14.0613 8.6738 14.1707 8.76906 14.2007 8.86608C14.7775 10.706 17.3019 14.4987 17.3266 14.5375C17.3331 14.5474 17.3373 14.5588 17.3388 14.5706C17.3402 14.5824 17.339 14.5945 17.335 14.6057C17.3311 14.617 17.3246 14.6272 17.3161 14.6355C17.3076 14.6439 17.2973 14.6502 17.286 14.6539C14.6858 15.483 14.4988 16.3103 14.497 16.3192C14.493 16.337 14.4828 16.353 14.4684 16.3642C14.4539 16.3755 14.436 16.3814 14.4177 16.3809C14.3993 16.3806 14.3816 16.3736 14.368 16.3613C14.3544 16.349 14.3457 16.3321 14.3436 16.3139C14.1936 14.9026 12.8459 11.2705 12.5619 10.5172C12.2373 11.0023 11.0677 12.8528 11.0677 14.2887C11.0677 15.9558 12.2902 17.6898 12.3026 17.7075C12.3095 17.7195 12.3132 17.7332 12.3132 17.7472C12.3132 17.7611 12.3095 17.7748 12.3026 17.7868C12.297 17.7996 12.2882 17.8106 12.277 17.819C12.2659 17.8273 12.2528 17.8326 12.2391 17.8345ZM9.95992 17.6792H12.0944C11.8104 17.2506 10.9143 15.7705 10.9143 14.2887C10.9143 12.5741 12.4525 10.3937 12.5178 10.3002C12.5259 10.289 12.5369 10.2801 12.5496 10.2745C12.5623 10.2689 12.5763 10.2668 12.5901 10.2685C12.6041 10.2703 12.6174 10.2759 12.6286 10.2846C12.6397 10.2932 12.6484 10.3047 12.6536 10.3179C12.7189 10.4943 14.176 14.3029 14.4635 16.044C14.6858 15.7211 15.3261 15.1249 17.1431 14.5322C16.7621 13.9624 14.5888 10.6178 14.0543 8.91195C14.0543 8.89254 14.0119 8.82198 13.7985 8.71261C13.0929 8.3598 11.0695 7.94172 9.95992 8.27336V17.6792Z" fill="black"/>
<path d="M12.581 10.4272C12.5653 10.4275 12.55 10.4229 12.537 10.414C12.5241 10.4052 12.5142 10.3925 12.5087 10.3778C12.4534 10.23 12.3892 10.0857 12.3164 9.94565C12.307 9.92761 12.3051 9.90659 12.311 9.88712C12.3169 9.86765 12.3303 9.8513 12.3482 9.84158C12.357 9.83668 12.3668 9.83361 12.3769 9.83256C12.387 9.83151 12.3972 9.83249 12.4069 9.83545C12.4166 9.83842 12.4256 9.84329 12.4334 9.8498C12.4412 9.8563 12.4476 9.86431 12.4522 9.87333C12.5284 10.019 12.5956 10.1692 12.6533 10.3232C12.6603 10.3426 12.6593 10.364 12.6508 10.3827C12.6422 10.4015 12.6267 10.4162 12.6075 10.4237C12.599 10.4266 12.59 10.4278 12.581 10.4272Z" fill="black"/>
<path d="M4.7666 10.4272C4.75726 10.4289 4.74772 10.4289 4.73838 10.4272C4.71949 10.4194 4.70435 10.4045 4.69614 10.3858C4.68792 10.3671 4.68725 10.3459 4.69427 10.3267C4.75081 10.1737 4.81619 10.0241 4.89008 9.87862C4.8949 9.86954 4.90147 9.8615 4.90941 9.85497C4.91736 9.84845 4.92652 9.84357 4.93637 9.84061C4.94621 9.83766 4.95655 9.83669 4.96677 9.83777C4.977 9.83884 4.98691 9.84193 4.99593 9.84687C5.0048 9.85166 5.01263 9.85817 5.01896 9.86603C5.02528 9.87388 5.02998 9.88292 5.03277 9.89261C5.03557 9.9023 5.0364 9.91245 5.03522 9.92247C5.03404 9.93249 5.03088 9.94217 5.02591 9.95095C4.95506 10.0917 4.89147 10.2359 4.8354 10.3831C4.82934 10.3963 4.81964 10.4074 4.80745 10.4152C4.79525 10.4231 4.78108 10.4272 4.7666 10.4272Z" fill="black"/>
<path d="M8.67245 10.9371C8.65818 10.9369 8.64424 10.9328 8.63214 10.9253C8.62005 10.9177 8.61028 10.9069 8.6039 10.8942C8.59752 10.8814 8.59478 10.8671 8.59598 10.8529C8.59718 10.8387 8.60228 10.8251 8.61071 10.8136C9.16043 10.0251 9.56432 9.14444 9.8032 8.2134C9.80528 8.20349 9.80933 8.1941 9.81509 8.18577C9.82086 8.17745 9.82824 8.17037 9.83679 8.16495C9.84534 8.15952 9.85489 8.15586 9.86487 8.15418C9.87486 8.15251 9.88508 8.15285 9.89493 8.15518C9.90496 8.15703 9.9145 8.16093 9.92295 8.16664C9.9314 8.17234 9.93859 8.17973 9.94405 8.18835C9.94952 8.19696 9.95314 8.2066 9.95471 8.21668C9.95627 8.22676 9.95574 8.23705 9.95314 8.24691C9.70906 9.19881 9.2962 10.0992 8.73419 10.9053C8.72698 10.9149 8.71767 10.9228 8.70697 10.9283C8.69628 10.9338 8.68447 10.9368 8.67245 10.9371Z" fill="black"/>
<path d="M8.93305 10.7607L8.70196 10.5843C8.67539 10.5642 8.64506 10.5497 8.61277 10.5415C8.58048 10.5334 8.54689 10.5319 8.51399 10.537C8.48108 10.5421 8.44954 10.5537 8.42123 10.5712C8.39291 10.5887 8.3684 10.6118 8.34915 10.6389L7.76525 11.4504C7.74462 11.4767 7.72957 11.5069 7.72103 11.5392C7.7125 11.5715 7.71065 11.6052 7.7156 11.6382C7.72056 11.6713 7.73221 11.7029 7.74985 11.7313C7.76749 11.7597 7.79074 11.7841 7.81817 11.8032L8.04926 11.9796C8.07528 11.9988 8.10485 12.0127 8.13626 12.0205C8.16767 12.0282 8.2003 12.0297 8.23227 12.0248C8.26425 12.0198 8.29493 12.0086 8.32256 11.9918C8.35019 11.975 8.37421 11.9528 8.39325 11.9267L8.98597 11.1135C9.0066 11.0872 9.02165 11.057 9.03019 11.0247C9.03872 10.9924 9.04057 10.9587 9.03562 10.9256C9.03066 10.8926 9.01901 10.8609 9.00137 10.8326C8.98373 10.8042 8.96048 10.7797 8.93305 10.7607ZM8.60493 10.9635C8.58341 10.9476 8.56909 10.9238 8.56512 10.8973C8.56115 10.8709 8.56786 10.8439 8.58377 10.8224C8.59967 10.8009 8.62348 10.7866 8.64994 10.7826C8.67641 10.7786 8.70337 10.7853 8.72489 10.8012C8.73578 10.8089 8.745 10.8187 8.752 10.8301C8.759 10.8414 8.76362 10.8541 8.7656 10.8673C8.76758 10.8805 8.76687 10.8939 8.76351 10.9068C8.76015 10.9197 8.75421 10.9318 8.74606 10.9424C8.73835 10.9532 8.72856 10.9624 8.71727 10.9694C8.70598 10.9764 8.69341 10.9811 8.68028 10.9833C8.66716 10.9854 8.65374 10.9849 8.64081 10.9818C8.62787 10.9787 8.61568 10.9731 8.60493 10.9653V10.9635Z" fill="#686868"/>
<path d="M8.55554 10.5843C8.59871 10.5836 8.64088 10.5973 8.6755 10.6231L8.90835 10.7995C8.95187 10.8311 8.98105 10.8787 8.9895 10.9318C8.99712 10.9852 8.98385 11.0396 8.95245 11.0835L8.36326 11.8897C8.3309 11.933 8.28283 11.9619 8.22939 11.9701C8.17595 11.9784 8.1214 11.9653 8.07749 11.9338L7.8464 11.7574C7.80277 11.7251 7.77362 11.6769 7.76525 11.6233C7.7611 11.5968 7.76223 11.5698 7.76859 11.5437C7.77495 11.5177 7.7864 11.4932 7.8023 11.4716L8.39149 10.6672C8.41027 10.6413 8.43496 10.6203 8.46349 10.6059C8.49202 10.5915 8.52358 10.5841 8.55554 10.5843ZM8.66491 11.0235C8.68754 11.0237 8.7099 11.0186 8.73014 11.0084C8.75038 10.9983 8.76793 10.9835 8.78134 10.9653C8.79269 10.9498 8.80088 10.9322 8.80542 10.9135C8.80997 10.8948 8.8108 10.8754 8.80785 10.8564C8.8049 10.8374 8.79824 10.8192 8.78824 10.8027C8.77824 10.7863 8.76511 10.772 8.74959 10.7607C8.72488 10.7431 8.69523 10.7338 8.66491 10.7342C8.64253 10.734 8.62042 10.7392 8.60047 10.7493C8.58051 10.7594 8.56328 10.7742 8.55025 10.7924C8.52779 10.8231 8.51834 10.8615 8.52395 10.8991C8.52956 10.9368 8.54979 10.9707 8.58024 10.9935C8.60505 11.0109 8.63463 11.0201 8.66491 11.02V11.0235ZM8.55554 10.5384C8.51673 10.5382 8.47842 10.5472 8.44377 10.5647C8.40911 10.5822 8.3791 10.6076 8.35621 10.639L7.76525 11.4504C7.74462 11.4767 7.72957 11.5069 7.72103 11.5392C7.7125 11.5715 7.71065 11.6052 7.7156 11.6382C7.72056 11.6713 7.73221 11.7029 7.74985 11.7313C7.76749 11.7597 7.79074 11.7842 7.81817 11.8032L8.04926 11.9796C8.10197 12.018 8.16772 12.034 8.23216 12.0241C8.2966 12.0141 8.35451 11.9791 8.39325 11.9267L8.98597 11.1135C9.0066 11.0872 9.02165 11.057 9.03019 11.0247C9.03872 10.9924 9.04057 10.9587 9.03562 10.9257C9.03066 10.8926 9.01901 10.8609 9.00137 10.8326C8.98373 10.8042 8.96048 10.7797 8.93305 10.7607L8.70196 10.5843C8.65921 10.5539 8.60796 10.5379 8.55554 10.5384ZM8.66491 10.9776C8.64332 10.978 8.62221 10.9712 8.60493 10.9582C8.59424 10.9504 8.5852 10.9405 8.57835 10.9292C8.57149 10.9178 8.56694 10.9052 8.56498 10.8921C8.56301 10.879 8.56366 10.8656 8.56688 10.8527C8.57011 10.8399 8.57584 10.8278 8.58377 10.8171C8.59326 10.8046 8.60552 10.7944 8.6196 10.7873C8.63367 10.7803 8.64918 10.7766 8.66491 10.7765C8.68655 10.7759 8.70775 10.7827 8.72489 10.796C8.74002 10.809 8.75089 10.8264 8.75613 10.8457C8.76136 10.865 8.76072 10.8854 8.75428 10.9043C8.74784 10.9233 8.7359 10.9399 8.71998 10.952C8.70406 10.9641 8.68488 10.9712 8.66491 10.9724V10.9776Z" fill="black"/>
<path d="M7.94226 11.5704C7.93826 11.5717 7.93392 11.5717 7.92991 11.5704C7.92799 11.5686 7.92646 11.5664 7.92541 11.5639C7.92437 11.5615 7.92383 11.5589 7.92383 11.5563C7.92383 11.5536 7.92437 11.551 7.92541 11.5486C7.92646 11.5461 7.92799 11.544 7.92991 11.5421L8.26508 11.0817C8.26705 11.0798 8.26939 11.0782 8.27196 11.0771C8.27453 11.0761 8.27729 11.0755 8.28008 11.0755C8.28286 11.0755 8.28562 11.0761 8.28819 11.0771C8.29077 11.0782 8.2931 11.0798 8.29507 11.0817C8.29854 11.0856 8.30046 11.0906 8.30046 11.0958C8.30046 11.101 8.29854 11.1061 8.29507 11.11L7.95814 11.5704C7.95305 11.5724 7.94735 11.5724 7.94226 11.5704Z" fill="black"/>
<path d="M8.25183 11.7979C8.24988 11.7987 8.24778 11.7992 8.24566 11.7992C8.24354 11.7992 8.24144 11.7987 8.23948 11.7979C8.23756 11.7961 8.23603 11.7939 8.23498 11.7915C8.23394 11.789 8.2334 11.7864 8.2334 11.7838C8.2334 11.7811 8.23394 11.7785 8.23498 11.7761C8.23603 11.7737 8.23756 11.7715 8.23948 11.7697L8.50938 11.3992C8.511 11.3969 8.51307 11.3949 8.51545 11.3934C8.51784 11.3919 8.5205 11.3909 8.52328 11.3904C8.52607 11.3899 8.52892 11.3899 8.53168 11.3906C8.53444 11.3912 8.53706 11.3923 8.53937 11.3939C8.54169 11.3956 8.54366 11.3976 8.54518 11.4C8.5467 11.4024 8.54774 11.4051 8.54823 11.4078C8.54872 11.4106 8.54866 11.4135 8.54805 11.4162C8.54743 11.419 8.54629 11.4216 8.54466 11.4239L8.273 11.7944C8.27011 11.7968 8.26662 11.7984 8.2629 11.799C8.25918 11.7996 8.25536 11.7993 8.25183 11.7979Z" fill="black"/>
<path d="M8.09572 11.6832H8.08337C8.0814 11.6813 8.07984 11.6789 8.07877 11.6764C8.0777 11.6738 8.07715 11.671 8.07715 11.6682C8.07715 11.6655 8.0777 11.6627 8.07877 11.6601C8.07984 11.6576 8.0814 11.6552 8.08337 11.6533L8.4944 11.0923C8.49636 11.0903 8.4987 11.0887 8.50127 11.0877C8.50385 11.0866 8.5066 11.0861 8.50939 11.0861C8.51218 11.0861 8.51494 11.0866 8.51751 11.0877C8.52008 11.0887 8.52242 11.0903 8.52438 11.0923C8.52636 11.0943 8.52792 11.0966 8.52899 11.0992C8.53006 11.1017 8.53061 11.1045 8.53061 11.1073C8.53061 11.1101 8.53006 11.1128 8.52899 11.1154C8.52792 11.118 8.52636 11.1203 8.52438 11.1223L8.11866 11.6744C8.11623 11.6781 8.11271 11.6809 8.1086 11.6825C8.10449 11.6841 8.09999 11.6843 8.09572 11.6832Z" fill="black"/>
<path d="M8.72148 12.1049C8.67037 12.1048 8.6208 12.0873 8.58101 12.0552C8.54123 12.0231 8.51361 11.9784 8.50274 11.9285L8.29458 10.9477C8.28866 10.9186 8.28853 10.8886 8.29419 10.8595C8.29985 10.8304 8.3112 10.8026 8.32758 10.7779C8.34396 10.7532 8.36506 10.7319 8.38967 10.7153C8.41427 10.6987 8.44191 10.6872 8.47099 10.6813L8.75147 10.6248C8.76671 10.6231 8.7821 10.6231 8.79733 10.6248C8.84867 10.6248 8.89848 10.6422 8.93857 10.6743C8.97865 10.7064 9.00661 10.7512 9.01784 10.8012L9.21718 11.7785C9.2231 11.8076 9.22323 11.8375 9.21757 11.8667C9.21191 11.8958 9.20056 11.9235 9.18418 11.9483C9.1678 11.973 9.1467 11.9943 9.12209 12.0108C9.09749 12.0274 9.06985 12.039 9.04077 12.0449L8.76029 12.1013C8.74751 12.1038 8.7345 12.105 8.72148 12.1049ZM8.66503 10.7607H8.64739C8.61571 10.7675 8.58797 10.7864 8.57015 10.8135C8.55233 10.8406 8.54586 10.8735 8.55213 10.9053C8.55814 10.9327 8.57329 10.9572 8.59509 10.9749C8.6169 10.9925 8.64405 11.0022 8.67209 11.0023H8.69678C8.72883 10.9981 8.7579 10.9814 8.77758 10.9557C8.79726 10.9301 8.80596 10.8977 8.80175 10.8656C8.79753 10.8336 8.78077 10.8045 8.75513 10.7848C8.72949 10.7651 8.69708 10.7565 8.66503 10.7607Z" fill="#686868"/>
<path d="M8.80481 10.6407C8.85183 10.641 8.89731 10.6574 8.93361 10.6873C8.96992 10.7172 8.99483 10.7587 9.00415 10.8047L9.20348 11.782C9.20889 11.8082 9.20906 11.8352 9.204 11.8614C9.19894 11.8877 9.18874 11.9127 9.17398 11.935C9.15923 11.9573 9.14021 11.9764 9.11803 11.9914C9.09585 12.0063 9.07093 12.0167 9.04472 12.0219L8.76424 12.0801H8.7219C8.67488 12.0799 8.6294 12.0634 8.5931 12.0335C8.55679 12.0036 8.53188 11.9622 8.52256 11.9161L8.32323 10.937C8.31327 10.8843 8.32428 10.8297 8.35392 10.7849C8.38357 10.7401 8.42951 10.7086 8.48199 10.6971L8.76424 10.6407C8.7777 10.6388 8.79135 10.6388 8.80481 10.6407ZM8.66545 11.027H8.69544C8.73208 11.0218 8.76526 11.0026 8.78802 10.9734C8.81077 10.9442 8.82131 10.9073 8.81743 10.8705C8.81354 10.8337 8.79553 10.7999 8.76718 10.7761C8.73884 10.7523 8.70237 10.7404 8.66545 10.743H8.63723C8.60099 10.7485 8.56824 10.7676 8.54574 10.7966C8.52324 10.8255 8.51271 10.862 8.51634 10.8984C8.51996 10.9349 8.53746 10.9686 8.56521 10.9925C8.59296 11.0164 8.62885 11.0288 8.66545 11.027ZM8.80481 10.5983C8.78839 10.5966 8.77184 10.5966 8.75542 10.5983L8.47317 10.6566C8.44157 10.6629 8.41154 10.6754 8.38481 10.6934C8.35808 10.7114 8.33519 10.7345 8.31747 10.7614C8.29975 10.7883 8.28754 10.8185 8.28157 10.8501C8.27559 10.8818 8.27596 10.9143 8.28265 10.9459L8.48199 11.9231C8.493 11.9787 8.52291 12.0288 8.56665 12.0648C8.61038 12.1008 8.66524 12.1206 8.7219 12.1207C8.73831 12.1225 8.75488 12.1225 8.77129 12.1207L9.05354 12.0643C9.11736 12.0507 9.17329 12.0125 9.20926 11.9581C9.24523 11.9036 9.25836 11.8372 9.24582 11.7732L9.04472 10.7959C9.03371 10.7403 9.0038 10.6903 8.96006 10.6543C8.91633 10.6183 8.86147 10.5985 8.80481 10.5983ZM8.66545 10.9847C8.64051 10.9844 8.61655 10.9749 8.59824 10.9579C8.57993 10.941 8.56857 10.9178 8.56637 10.893C8.56417 10.8681 8.57129 10.8434 8.58634 10.8235C8.60139 10.8036 8.6233 10.79 8.64781 10.7853H8.66721C8.69248 10.7847 8.71707 10.7936 8.73608 10.8102C8.75509 10.8269 8.76713 10.8501 8.7698 10.8752C8.77247 10.9004 8.76557 10.9256 8.75048 10.9459C8.7354 10.9662 8.71322 10.98 8.68838 10.9847H8.66545Z" fill="black"/>
<path d="M8.67016 11.8879C8.66761 11.8884 8.66498 11.8884 8.66243 11.8878C8.65988 11.8873 8.65747 11.8863 8.65533 11.8848C8.65319 11.8833 8.65137 11.8814 8.64998 11.8792C8.64859 11.877 8.64765 11.8746 8.64723 11.872L8.53256 11.3146C8.53206 11.3118 8.53212 11.3089 8.53274 11.3061C8.53336 11.3034 8.53453 11.3008 8.53617 11.2985C8.53781 11.2962 8.5399 11.2942 8.54231 11.2927C8.54472 11.2913 8.54741 11.2903 8.55021 11.2899C8.55288 11.2891 8.55569 11.2889 8.55844 11.2893C8.5612 11.2897 8.56384 11.2906 8.56618 11.2921C8.56853 11.2937 8.57052 11.2956 8.57202 11.298C8.57353 11.3003 8.57451 11.303 8.5749 11.3057L8.6878 11.8632C8.68859 11.8658 8.68879 11.8686 8.6884 11.8714C8.688 11.8742 8.68702 11.8768 8.68551 11.8791C8.684 11.8815 8.68201 11.8835 8.67967 11.885C8.67732 11.8865 8.67468 11.8875 8.67192 11.8879H8.67016Z" fill="black"/>
<path d="M9.04792 11.8191C9.04286 11.8191 9.03795 11.8174 9.03407 11.8142C9.03019 11.8109 9.02759 11.8064 9.02675 11.8014L8.93502 11.3534C8.9339 11.3478 8.9349 11.342 8.93784 11.3371C8.94077 11.3322 8.94543 11.3286 8.95089 11.3269C8.95368 11.3264 8.95653 11.3265 8.95929 11.3271C8.96206 11.3277 8.96466 11.3289 8.96697 11.3305C8.96927 11.3322 8.97122 11.3342 8.9727 11.3367C8.97418 11.3391 8.97516 11.3417 8.97559 11.3445L9.06732 11.7926C9.06811 11.7953 9.06831 11.7981 9.06791 11.8009C9.06752 11.8036 9.06654 11.8063 9.06503 11.8086C9.06352 11.8109 9.06153 11.8129 9.05919 11.8144C9.05684 11.8159 9.0542 11.8169 9.05144 11.8173L9.04792 11.8191Z" fill="black"/>
<path d="M8.85894 11.8508C8.85389 11.8509 8.84898 11.8492 8.8451 11.8459C8.84121 11.8427 8.83862 11.8382 8.83778 11.8332L8.69842 11.1505C8.69776 11.1452 8.69898 11.1398 8.70188 11.1353C8.70478 11.1308 8.70918 11.1274 8.71429 11.1258C8.71708 11.1253 8.71993 11.1254 8.72269 11.126C8.72546 11.1266 8.72806 11.1278 8.73037 11.1294C8.73267 11.1311 8.73462 11.1332 8.7361 11.1356C8.73758 11.138 8.73856 11.1407 8.73899 11.1435L8.87835 11.8191C8.87914 11.8218 8.87934 11.8246 8.87894 11.8273C8.87855 11.8301 8.87756 11.8327 8.87606 11.8351C8.87455 11.8374 8.87256 11.8394 8.87022 11.8409C8.86787 11.8424 8.86523 11.8434 8.86247 11.8438L8.85894 11.8508Z" fill="black"/>
<path d="M8.67198 10.9371C8.65993 10.9369 8.64808 10.934 8.63736 10.9285C8.62665 10.923 8.61736 10.915 8.61024 10.9053C8.04724 10.0995 7.63375 9.19907 7.38952 8.24691C7.38732 8.23695 7.38711 8.22665 7.38889 8.2166C7.39066 8.20656 7.3944 8.19696 7.39989 8.18836C7.41097 8.17099 7.4285 8.15874 7.44862 8.1543C7.46874 8.14985 7.4898 8.15358 7.50717 8.16466C7.52453 8.17574 7.53679 8.19327 7.54123 8.21339C7.77921 9.14476 8.18317 10.0256 8.73372 10.8136C8.74571 10.83 8.75076 10.8505 8.74779 10.8706C8.74482 10.8908 8.73407 10.9089 8.71785 10.9212C8.70471 10.9314 8.6886 10.9369 8.67198 10.9371Z" fill="black"/>
<path d="M30.8113 10.3587V9.61327H26.6002V11.7102H30.9609C31.2835 11.7071 31.6034 11.7696 31.9011 11.8939C32.1988 12.0183 32.4681 12.2019 32.6926 12.4336C32.9277 12.6576 33.114 12.9277 33.24 13.227C33.3659 13.5263 33.4288 13.8484 33.4246 14.1731V16.5345C33.4288 16.8592 33.3659 17.1813 33.24 17.4806C33.114 17.7799 32.9277 18.05 32.6926 18.2741C32.4681 18.5059 32.1988 18.6896 31.9011 18.8141C31.6035 18.9386 31.2836 19.0012 30.9609 18.9982H26.4837C26.1598 19.0027 25.8384 18.9408 25.5393 18.8163C25.2403 18.6917 24.9699 18.5072 24.7449 18.2741C24.512 18.0491 24.3276 17.7789 24.203 17.48C24.0785 17.1811 24.0165 16.8599 24.0208 16.5361V15.4223H26.3641C26.4267 15.4223 26.4867 15.4472 26.531 15.4915C26.5753 15.5358 26.6002 15.5958 26.6002 15.6584V16.4039H30.8113V14.3062H26.4821C26.1584 14.3106 25.8373 14.2487 25.5385 14.1241C25.2397 13.9995 24.9696 13.815 24.7449 13.582C24.5118 13.357 24.3273 13.0867 24.2028 12.7876C24.0782 12.4886 24.0163 12.1671 24.0208 11.8432V9.48182C24.016 9.15752 24.0779 8.83569 24.2024 8.53621C24.327 8.23674 24.5116 7.96599 24.7449 7.74069C24.9699 7.50759 25.2403 7.32307 25.5393 7.19852C25.8384 7.07397 26.1598 7.01203 26.4837 7.01652H30.9609C31.2836 7.01355 31.6035 7.07622 31.9011 7.20071C32.1988 7.32519 32.4681 7.50891 32.6926 7.74069C32.9277 7.96473 33.114 8.23484 33.24 8.53415C33.3659 8.83347 33.4288 9.15554 33.4246 9.48025V10.5948H31.0475C30.9849 10.5948 30.9248 10.5699 30.8805 10.5257C30.8362 10.4814 30.8113 10.4213 30.8113 10.3587Z" fill="white"/>
<path d="M37.8509 16.4031V7.23614C37.8509 7.17351 37.826 7.11345 37.7818 7.06916C37.7375 7.02488 37.6774 7 37.6148 7H35.2715V18.9998H44.6746V16.6384C44.6746 16.5758 44.6497 16.5157 44.6054 16.4715C44.5611 16.4272 44.5011 16.4023 44.4384 16.4023L37.8509 16.4031Z" fill="white"/>
<path d="M54.1605 9.37715V7.01654H45.6729V18.9998H54.1605V16.6384C54.1605 16.5758 54.1356 16.5158 54.0913 16.4715C54.047 16.4272 53.987 16.4023 53.9244 16.4023H48.2853V14.3062H52.2793C52.3419 14.3062 52.4019 14.2813 52.4462 14.237C52.4905 14.1927 52.5154 14.1327 52.5154 14.07V11.9448C52.5154 11.8821 52.4905 11.8221 52.4462 11.7778C52.4019 11.7335 52.3419 11.7086 52.2793 11.7086H48.2853V9.61329H53.9244C53.987 9.61329 54.047 9.58841 54.0913 9.54413C54.1356 9.49984 54.1605 9.43978 54.1605 9.37715Z" fill="white"/>
<path d="M86.8956 9.37715V7.01654H78.4111V18.9998H86.8956V16.6384C86.8956 16.5758 86.8708 16.5158 86.8265 16.4715C86.7822 16.4272 86.7221 16.4023 86.6595 16.4023H81.0205V14.3062H85.012C85.0747 14.3062 85.1347 14.2813 85.179 14.237C85.2233 14.1927 85.2482 14.1327 85.2482 14.07V11.9448C85.2482 11.8821 85.2233 11.8221 85.179 11.7778C85.1347 11.7335 85.0747 11.7086 85.012 11.7086H81.0205V9.61329H86.6595C86.7221 9.61329 86.7822 9.58841 86.8265 9.54413C86.8708 9.49984 86.8956 9.43978 86.8956 9.37715Z" fill="white"/>
<path d="M65.2107 7.01654V18.9998H62.5974L58.3878 12.1849V18.7637C58.3878 18.8263 58.363 18.8864 58.3187 18.9307C58.2744 18.975 58.2143 18.9998 58.1517 18.9998H55.8076V7.01654H58.3878V7.03307L62.5974 13.8481V7.25268C62.5974 7.19005 62.6223 7.12999 62.6666 7.0857C62.7109 7.04142 62.7709 7.01654 62.8336 7.01654H65.2107Z" fill="white"/>
<path d="M75.7787 7.74072C75.5516 7.50801 75.2796 7.32383 74.9793 7.19935C74.6789 7.07487 74.3564 7.01269 74.0313 7.01656H67.1045V18.9999H74.0313C74.3564 19.0037 74.6789 18.9415 74.9793 18.8171C75.2796 18.6926 75.5516 18.5084 75.7787 18.2757C76.0138 18.0517 76.2001 17.7815 76.3261 17.4822C76.452 17.1829 76.5149 16.8608 76.5107 16.5361V9.48028C76.5149 9.15557 76.452 8.8335 76.3261 8.53419C76.2001 8.23488 76.0138 7.96476 75.7787 7.74072ZM73.6613 16.4031H69.6871V9.61331H73.6613C73.7239 9.61331 73.784 9.63819 73.8283 9.68247C73.8726 9.72676 73.8974 9.78682 73.8974 9.84945V16.167C73.8974 16.2296 73.8726 16.2897 73.8283 16.3339C73.784 16.3782 73.7239 16.4031 73.6613 16.4031Z" fill="white"/>
<path d="M97.1976 14.3203C97.4323 14.0975 97.6187 13.8287 97.7451 13.5309C97.8716 13.233 97.9355 12.9123 97.9328 12.5886V9.49678C97.9358 9.17333 97.8723 8.85273 97.7462 8.55485C97.6201 8.25696 97.4342 7.98815 97.2 7.76509C96.9739 7.52992 96.7019 7.34362 96.401 7.21771C96.1 7.0918 95.7764 7.02895 95.4502 7.03306H88.5234V18.9975H91.1037V15.0697H91.8459V15.0579H91.9522L95.1944 18.9148C95.2165 18.9411 95.2441 18.9623 95.2752 18.9768C95.3063 18.9914 95.3403 18.999 95.3746 18.999H97.6967C97.7593 18.999 97.8194 18.9742 97.8637 18.9299C97.9079 18.8856 97.9328 18.8255 97.9328 18.7629V18.2032C97.9329 18.1473 97.913 18.0932 97.8769 18.0505L95.3353 15.0555H95.4518C95.7776 15.0588 96.1006 14.9953 96.4009 14.8689C96.7012 14.7424 96.9724 14.5557 97.1976 14.3203ZM95.081 12.4588H91.1068V9.61328H95.081C95.1437 9.61328 95.2037 9.63815 95.248 9.68244C95.2923 9.72672 95.3172 9.78679 95.3172 9.84941V12.2226C95.3172 12.2852 95.2923 12.3453 95.248 12.3896C95.2037 12.4339 95.1437 12.4588 95.081 12.4588Z" fill="white"/>
<path d="M106.484 10.3752V9.61327H102.274V16.4031H106.484V14.6061H104.123C104.06 14.6061 104 14.5812 103.956 14.5369C103.912 14.4926 103.887 14.4325 103.887 14.3699V12.0085H109.096V16.5353C109.1 16.86 109.037 17.1821 108.911 17.4814C108.785 17.7807 108.599 18.0508 108.364 18.2749C108.137 18.5076 107.865 18.6918 107.565 18.8162C107.264 18.9407 106.942 19.0029 106.617 18.999H102.158C101.505 18.9965 100.88 18.7362 100.418 18.2746C99.9571 17.8131 99.6969 17.1879 99.6946 16.5353V9.48025C99.6899 9.15619 99.7518 8.83461 99.8764 8.53541C100.001 8.2362 100.186 7.96572 100.419 7.74069C100.644 7.50759 100.914 7.32307 101.213 7.19852C101.512 7.07397 101.834 7.01203 102.158 7.01652H106.617C106.943 7.01265 107.265 7.07484 107.565 7.19932C107.866 7.3238 108.138 7.50797 108.365 7.74069C108.6 7.96473 108.786 8.23484 108.912 8.53415C109.038 8.83347 109.101 9.15554 109.097 9.48025V10.6114H106.721C106.658 10.6114 106.598 10.5865 106.554 10.5422C106.509 10.4979 106.484 10.4378 106.484 10.3752Z" fill="#FFAA00"/>
<path d="M117.717 10.3752V9.61327H113.506V16.4031H117.717V14.6061H115.355C115.293 14.6061 115.233 14.5812 115.188 14.5369C115.144 14.4926 115.119 14.4325 115.119 14.3699V12.0085H120.328V16.5353C120.332 16.86 120.27 17.1821 120.144 17.4814C120.018 17.7807 119.831 18.0508 119.596 18.2749C119.369 18.5076 119.097 18.6918 118.797 18.8162C118.497 18.9407 118.174 19.0029 117.849 18.999H113.389C112.736 18.9965 112.111 18.7362 111.65 18.2746C111.189 17.8131 110.928 17.1879 110.926 16.5353V9.48025C110.921 9.15619 110.983 8.83461 111.108 8.53541C111.232 8.2362 111.417 7.96572 111.65 7.74069C111.875 7.50759 112.146 7.32307 112.445 7.19852C112.744 7.07397 113.065 7.01203 113.389 7.01652H117.846C118.172 7.01265 118.494 7.07484 118.795 7.19932C119.095 7.3238 119.367 7.50797 119.594 7.74069C119.829 7.96473 120.015 8.23484 120.141 8.53415C120.267 8.83347 120.33 9.15554 120.326 9.48025V10.6114H117.95C117.888 10.6105 117.828 10.5853 117.785 10.5411C117.741 10.4969 117.717 10.4373 117.717 10.3752Z" fill="#FFAA00"/>
</svg>
