<svg width="18" height="25" viewBox="0 0 18 25" fill="none" xmlns="http://www.w3.org/2000/svg">
<path d="M9.88316 8.22748V15.4371H7.46289V8.22924C7.67709 8.28317 7.89541 8.31916 8.11559 8.33685L8.29199 8.3492L8.67126 8.36155L9.05053 8.3492L9.22693 8.33685C9.44832 8.31858 9.66781 8.28199 9.88316 8.22748Z" fill="#CCCCCC"/>
<path d="M10.479 23.1336C10.479 23.1336 10.5548 21.606 10.5548 21.0768C10.5548 20.5476 8.67081 17.2435 8.67081 17.2435C8.67081 17.2435 6.78858 20.5476 6.78858 21.0768C6.78858 21.606 6.86443 23.1336 6.86443 23.1336H4.16016C4.16016 23.1336 4.27129 21.3184 4.37184 20.44C4.47239 19.5615 6.53103 15.4371 6.53103 15.4371H10.8106C10.8106 15.4371 12.871 19.5615 12.9715 20.44C13.0721 21.3184 13.1832 23.1336 13.1832 23.1336H10.479Z" fill="#0C0C0C"/>
<path d="M13.1828 23.2112H10.4785C10.4681 23.2113 10.4579 23.2091 10.4485 23.2048C10.439 23.2006 10.4306 23.1943 10.4238 23.1866C10.4164 23.1792 10.4107 23.1704 10.4071 23.1606C10.4034 23.1509 10.4019 23.1405 10.4026 23.1301C10.4026 23.116 10.4767 21.5989 10.4767 21.0768C10.4767 20.6763 9.23131 18.3901 8.67034 17.3987C8.1182 18.3901 6.86573 20.6763 6.86573 21.0768C6.86573 21.606 6.93982 23.116 6.93982 23.1301C6.94094 23.1405 6.93961 23.151 6.93594 23.1608C6.93226 23.1706 6.92634 23.1794 6.91865 23.1866C6.91183 23.1943 6.90342 23.2006 6.89399 23.2048C6.88455 23.2091 6.87431 23.2113 6.86396 23.2112H4.15969C4.14907 23.2113 4.13857 23.2091 4.12884 23.2049C4.11912 23.2006 4.11039 23.1944 4.10324 23.1866C4.08903 23.1713 4.08143 23.151 4.08207 23.1301C4.08207 23.1107 4.19497 21.3026 4.29552 20.4311C4.39607 19.5597 6.37885 15.5712 6.46352 15.4018C6.47 15.3891 6.47985 15.3785 6.49198 15.371C6.50412 15.3635 6.51807 15.3596 6.53232 15.3595H10.8101C10.8244 15.3596 10.8383 15.3635 10.8505 15.371C10.8626 15.3785 10.8724 15.3891 10.8789 15.4018C10.9636 15.5782 12.9464 19.5491 13.0469 20.4311C13.1475 21.3131 13.2586 23.1107 13.2586 23.1301C13.2596 23.1403 13.2584 23.1507 13.255 23.1604C13.2517 23.1702 13.2463 23.1791 13.2392 23.1866C13.2319 23.1942 13.2232 23.2004 13.2135 23.2046C13.2038 23.2088 13.1933 23.2111 13.1828 23.2112ZM10.5596 23.0578H13.0998C13.0769 22.6944 12.9817 21.2091 12.8935 20.4488C12.8017 19.6408 10.9795 15.954 10.7625 15.5094H6.57995C6.36297 15.9505 4.54072 19.6373 4.44723 20.4488C4.36079 21.2091 4.27082 22.6944 4.2426 23.0578H6.78282C6.76694 22.735 6.71049 21.5319 6.71049 21.0768C6.71049 20.5475 8.41103 17.5487 8.60507 17.1959C8.61231 17.1849 8.62214 17.176 8.63369 17.1698C8.64523 17.1636 8.65812 17.1604 8.67122 17.1604C8.68432 17.1604 8.69722 17.1636 8.70876 17.1698C8.7203 17.176 8.73013 17.1849 8.73737 17.1959C8.93142 17.5363 10.632 20.5334 10.632 21.0768C10.632 21.5319 10.5755 22.735 10.5596 23.0578Z" fill="black"/>
<path d="M10.4537 23.0825C10.3654 23.5093 10.331 23.9454 10.3514 24.3808C10.3525 24.406 10.3612 24.4302 10.3763 24.4503C10.3914 24.4705 10.4123 24.4856 10.4361 24.4937C10.9993 24.6819 11.5777 24.8212 12.1648 24.91C12.9816 25.0229 14.1794 25.1023 14.1794 24.6683C14.1794 24.2344 14.2517 23.7052 14.1035 23.5552C13.9553 23.4053 13.6607 23.2906 13.5214 22.9731C13.4387 22.7496 13.3155 22.5433 13.158 22.3645C13.158 22.3645 12.3042 23.2853 10.4537 23.0825Z" fill="#CCCCCC"/>
<path d="M13.1402 22.5885C13.2391 22.7263 13.3198 22.8763 13.3801 23.0348C13.4829 23.246 13.6439 23.4235 13.844 23.5464C13.8967 23.5822 13.9468 23.6217 13.994 23.6646C14.0575 23.7281 14.0434 24.1021 14.0345 24.3261C14.0345 24.439 14.0257 24.5554 14.0257 24.6683C14.0257 24.7283 13.8705 24.8447 13.2795 24.8447C12.9129 24.8388 12.5471 24.8099 12.1841 24.7583C11.6141 24.6702 11.0524 24.5351 10.5047 24.3543C10.4924 23.9843 10.5202 23.6141 10.5876 23.25C10.7228 23.2606 10.8569 23.2659 10.9898 23.2659C12.1752 23.2659 12.8773 22.8108 13.149 22.5885H13.1402ZM13.1666 22.3645C13.1666 22.3645 12.4663 23.1089 10.981 23.1089C10.8041 23.109 10.6275 23.0989 10.4518 23.0789C10.3634 23.5057 10.3291 23.9419 10.3495 24.3773C10.3506 24.4024 10.3593 24.4266 10.3744 24.4468C10.3895 24.4669 10.4103 24.482 10.4341 24.4902C10.9973 24.6784 11.5757 24.8177 12.1629 24.9065C12.5321 24.9609 12.9046 24.9909 13.2778 24.9964C13.7752 24.9964 14.1774 24.9171 14.1774 24.6648C14.1774 24.2291 14.2497 23.7016 14.1016 23.5517C13.9534 23.4017 13.6588 23.2871 13.5194 22.9696C13.4367 22.7461 13.3135 22.5398 13.156 22.361L13.1666 22.3645Z" fill="black"/>
<path d="M13.4264 23.4512C12.9991 23.7381 12.4878 23.8729 11.9746 23.834L13.4264 23.4512Z" fill="#CCCCCC"/>
<path d="M12.1271 23.9151H11.9701C11.9591 23.9168 11.9478 23.9161 11.9371 23.913C11.9263 23.9099 11.9164 23.9046 11.9079 23.8973C11.8994 23.89 11.8926 23.8809 11.8879 23.8708C11.8833 23.8606 11.8809 23.8496 11.8809 23.8384C11.8809 23.8272 11.8833 23.8162 11.8879 23.806C11.8926 23.7959 11.8994 23.7868 11.9079 23.7795C11.9164 23.7722 11.9263 23.7669 11.9371 23.7638C11.9478 23.7607 11.9591 23.76 11.9701 23.7617C12.4643 23.799 12.9568 23.6698 13.369 23.3947C13.3769 23.3873 13.3862 23.3816 13.3964 23.378C13.4066 23.3744 13.4174 23.3729 13.4281 23.3738C13.4389 23.3746 13.4494 23.3776 13.4589 23.3827C13.4685 23.3878 13.4768 23.3948 13.4835 23.4033C13.4901 23.4118 13.4949 23.4216 13.4976 23.4321C13.5002 23.4426 13.5007 23.4535 13.4989 23.4641C13.4971 23.4748 13.4931 23.4849 13.4871 23.4939C13.4811 23.503 13.4734 23.5106 13.4643 23.5165C13.0702 23.7838 12.6033 23.9231 12.1271 23.9151Z" fill="black"/>
<path d="M6.88372 23.0825C6.97206 23.5093 7.00643 23.9454 6.98603 24.3808C6.98504 24.4057 6.97661 24.4298 6.96184 24.4499C6.94706 24.47 6.92662 24.4853 6.90312 24.4937C6.33978 24.6815 5.76143 24.8208 5.17436 24.91C4.35585 25.0229 3.15806 25.1023 3.15806 24.6683C3.15806 24.2344 3.08574 23.7052 3.23568 23.5552C3.38562 23.4053 3.67846 23.2906 3.81781 22.9731C3.8992 22.7494 4.02187 22.5429 4.17944 22.3645C4.17944 22.3645 5.03148 23.2853 6.88372 23.0825Z" fill="#CCCCCC"/>
<path d="M4.19543 22.5885C4.46709 22.8108 5.16918 23.2659 6.35462 23.2659C6.48692 23.2659 6.62099 23.2659 6.75858 23.2501C6.82129 23.6146 6.84554 23.9847 6.83091 24.3543C6.28328 24.5353 5.72155 24.6704 5.15154 24.7583C4.78912 24.8098 4.42384 24.8387 4.05783 24.8447C3.46688 24.8447 3.30988 24.7283 3.30988 24.6683C3.30988 24.5554 3.30988 24.439 3.30988 24.3261C3.30106 24.1021 3.28695 23.7281 3.35045 23.6646C3.39758 23.6217 3.44769 23.5822 3.5004 23.5464C3.70089 23.4234 3.86237 23.246 3.9661 23.0348C4.02596 22.8764 4.106 22.7264 4.20425 22.5885H4.19543ZM4.18661 22.3645C4.02903 22.5429 3.90637 22.7494 3.82498 22.9731C3.68562 23.2906 3.39103 23.4071 3.24285 23.5552C3.09467 23.7034 3.16523 24.2326 3.16523 24.6683C3.16523 24.9206 3.56743 25 4.06665 25C4.43984 24.9943 4.81226 24.9643 5.18153 24.91C5.76859 24.8208 6.34695 24.6815 6.91029 24.4937C6.93378 24.4853 6.95423 24.47 6.969 24.4499C6.98377 24.4298 6.9922 24.4057 6.9932 24.3808C7.0136 23.9454 6.97922 23.5093 6.89088 23.0825C6.71519 23.1025 6.5385 23.1125 6.36167 23.1125C4.87635 23.1125 4.18484 22.3645 4.18484 22.3645H4.18661Z" fill="black"/>
<path d="M3.91016 23.4512C4.33743 23.7381 4.84878 23.8729 5.36196 23.834L3.91016 23.4512Z" fill="#CCCCCC"/>
<path d="M5.20992 23.9151C4.72964 23.9235 4.25863 23.7824 3.86219 23.5111C3.84814 23.4978 3.83955 23.4798 3.83811 23.4605C3.83666 23.4412 3.84247 23.4221 3.85438 23.4069C3.8663 23.3916 3.88347 23.3814 3.90254 23.3782C3.9216 23.3749 3.94118 23.3789 3.95745 23.3894C4.36969 23.6645 4.86215 23.7936 5.35634 23.7563C5.36654 23.7556 5.37678 23.7569 5.38647 23.7601C5.39616 23.7634 5.40512 23.7685 5.41282 23.7752C5.42052 23.782 5.42683 23.7901 5.43136 23.7993C5.4359 23.8085 5.43858 23.8184 5.43925 23.8286C5.44022 23.8489 5.43318 23.8688 5.41966 23.884C5.40614 23.8992 5.3872 23.9084 5.36692 23.9098L5.20992 23.9151Z" fill="black"/>
<path d="M9.83237 8.19751C9.83237 8.19751 9.78122 8.97545 8.62577 8.97545C7.47032 8.97545 7.41211 8.19751 7.41211 8.19751" fill="#FDC997"/>
<path d="M8.62621 9.05307C7.41255 9.05307 7.34375 8.21162 7.34375 8.2028C7.34654 8.18445 7.35582 8.1677 7.36989 8.15561C7.38397 8.14351 7.40192 8.13685 7.42049 8.13685C7.43905 8.13685 7.457 8.14351 7.47108 8.15561C7.48516 8.1677 7.49443 8.18445 7.49722 8.2028C7.49722 8.23103 7.56249 8.90842 8.62621 8.90842C9.68993 8.90842 9.75343 8.23103 9.75696 8.2028C9.75739 8.19275 9.75987 8.18289 9.76424 8.17383C9.7686 8.16476 9.77477 8.15668 9.78236 8.15008C9.78996 8.14348 9.79882 8.13849 9.8084 8.13542C9.81798 8.13236 9.82809 8.13127 9.8381 8.13224C9.85838 8.1336 9.87732 8.14287 9.89084 8.15804C9.90437 8.17321 9.9114 8.19308 9.91043 8.21339C9.91043 8.21339 9.83987 9.05307 8.62621 9.05307Z" fill="black"/>
<path d="M11.2396 6.32231V6.37347C11.2396 6.66277 11.155 7.67533 10.1812 8.12693L10.1565 8.13928C9.85469 8.24943 9.53868 8.31596 9.21806 8.33685L9.04165 8.3492L8.66238 8.36155L8.2937 8.3492L8.11729 8.33685C7.79667 8.31596 7.48066 8.24943 7.17882 8.13928L7.15413 8.12693C6.18391 7.67533 6.0957 6.66277 6.0957 6.37347V6.32231L6.17685 6.24469V4.99046L6.4591 4.79289C6.45145 4.58154 6.47342 4.37015 6.52437 4.16489C6.57905 3.96379 6.62139 3.83325 6.79074 3.78209C6.97346 4.15862 7.20282 4.51066 7.47342 4.82993C7.32919 4.49564 7.25418 4.13559 7.25291 3.77151C7.73294 3.86453 8.20483 3.99548 8.66415 4.16313C8.66415 4.16313 9.64848 3.81032 10.1618 3.76269C10.2615 3.75196 10.362 3.75196 10.4617 3.76269C10.371 3.90027 10.2683 4.02955 10.1548 4.14901C10.2603 4.15095 10.3651 4.13165 10.463 4.09225C10.5608 4.05285 10.6498 3.99417 10.7245 3.91969C10.7642 3.99673 10.7939 4.07854 10.8128 4.16313C10.8636 4.36838 10.885 4.57984 10.8763 4.79112L11.1603 4.9887V6.24469L11.2396 6.32231Z" fill="#FDC997"/>
<path d="M11.0844 3.30935V6.37349C11.0844 6.56753 11.0385 7.55893 10.116 7.98935H10.1001C9.81353 8.09372 9.51356 8.15668 9.20924 8.17634L9.04165 8.18692L8.66768 8.20104L8.2937 8.19398L8.12611 8.1834C7.82242 8.16626 7.52258 8.10689 7.23527 8.00699L7.21411 7.99641C6.29504 7.56775 6.24917 6.57635 6.24917 6.38231V3.30935H11.0826H11.0844ZM11.2379 3.15411H6.0957V6.37349C6.0957 6.66279 6.18038 7.67535 7.15413 8.12695L7.17882 8.1393C7.48066 8.24945 7.79667 8.31598 8.11729 8.33687L8.2937 8.34922L8.67297 8.36157L9.05224 8.34922L9.22864 8.33687C9.54927 8.31598 9.86528 8.24945 10.1671 8.1393L10.1918 8.12695C11.162 7.67535 11.2502 6.66279 11.2502 6.37349V3.15411H11.2379Z" fill="black"/>
<path d="M11.3657 3.14355V6.45113L11.1646 6.24474V4.99051L10.8806 4.79293C10.8893 4.58165 10.868 4.37019 10.8171 4.16493C10.7342 3.85799 10.6813 3.71863 10.1662 3.7645C9.65106 3.81036 8.66849 4.16493 8.66849 4.16493C8.66849 4.16493 7.68415 3.81213 7.17082 3.7645C6.65748 3.71687 6.6028 3.85799 6.51989 4.16493C6.46894 4.3702 6.44697 4.58158 6.45462 4.79293L6.17766 4.99051V6.24474L5.97656 6.45113V3.14355H11.3657Z" fill="black"/>
<path d="M5.97158 4.2337C5.97158 4.2337 5.83398 3.35168 5.68933 3.21232C5.54468 3.07296 5.13719 3.12235 4.61503 3.4734C4.61503 3.4734 5.36475 2.47495 5.90984 2.49788C5.90984 2.49788 5.07015 1.78168 4.23047 2.49788C4.23047 2.49788 4.99077 1.43945 6.10212 1.53295C6.10212 1.53295 5.81281 1.09194 4.88846 0.853793C4.88846 0.853793 6.50961 0.933175 6.9418 1.5453C6.99444 1.13593 7.01332 0.722929 6.99825 0.310468C6.99825 0.310468 7.80442 1.15192 7.5892 1.84342C7.5892 1.84342 8.3548 0.698557 8.27542 0.21521C8.27542 0.21521 8.5312 1.50296 8.52591 1.94044C8.52591 1.94044 8.65998 0.583895 9.25975 0.261075C9.25975 0.261075 9.14862 0.917299 9.24035 1.18543C9.24035 1.18543 10.2264 0.700321 11.1808 0.726782C11.1808 0.726782 10.0024 1.51531 10.1224 1.83284C10.1224 1.83284 10.918 1.37419 11.7647 1.65643C11.7647 1.65643 10.9444 2.0798 10.8721 2.43085C10.8721 2.43085 11.4313 2.0163 12.6943 2.49964C12.6943 2.49964 11.9499 2.58608 11.7576 2.86304C11.5654 3.13999 11.366 4.2337 11.366 4.2337L10.8827 3.45928L9.75192 3.39049L6.73012 3.52808L5.97158 4.2337Z" fill="black"/>
<path d="M10.2342 1.36536C10.7342 1.11466 11.2959 1.01359 11.8519 1.07429C11.8519 1.07429 10.6082 1.54705 10.5059 1.91221C10.4442 2.13095 10.0155 2.06568 9.95729 1.83989C9.91318 1.68641 10.2342 1.36536 10.2342 1.36536Z" fill="black"/>
<path d="M7.26367 1.50825C7.26367 1.50825 7.68881 1.10605 7.52475 0.21521C7.52475 0.21521 8.01339 1.11664 7.72938 2.05334C7.44537 2.99005 7.26367 1.50825 7.26367 1.50825Z" fill="black"/>
<path d="M8.28125 1.24718C8.41687 0.797922 8.63 0.37584 8.91101 0C8.91101 0 8.78577 1.23483 8.91101 1.51708C9.03626 1.79932 8.4012 2.78013 8.4012 2.78013L8.28125 1.24718Z" fill="black"/>
<path d="M6.57791 1.67588C6.57791 1.67588 6.36799 0.705656 5.91992 0.299927C5.91992 0.299927 7.07713 0.96497 7.21826 1.88756C7.35938 2.81016 6.57791 1.67588 6.57791 1.67588Z" fill="black"/>
<path d="M10.928 2.05333C11.3839 1.88803 11.8768 1.85261 12.3516 1.95101C12.3516 1.95101 11.3585 2.37086 11.2403 2.83303C11.1221 3.29521 10.457 2.52609 10.457 2.52609L10.928 2.05333Z" fill="black"/>
<path d="M6.09753 2.08685C6.09753 2.08685 4.97913 2.26326 4.47461 2.87009C4.47461 2.87009 5.8241 2.52963 6.23865 2.84186C6.6532 3.1541 6.09753 2.08685 6.09753 2.08685Z" fill="black"/>
<path d="M9.10742 1.33713C9.10742 1.33713 9.10742 0.837908 9.68956 0.338684C9.68956 0.338684 9.55372 1.43063 9.73542 1.67583C9.91712 1.92103 9.10742 1.33713 9.10742 1.33713Z" fill="black"/>
<path d="M8.19355 1.41121C8.19355 1.41121 8.08594 0.576815 7.84074 0.20813C7.75723 0.720082 7.64594 1.22711 7.50733 1.72697C7.3715 2.07978 8.08947 1.76754 8.08947 1.76754L8.19355 1.41121Z" fill="black"/>
<path d="M9.44922 1.20127C9.44922 1.20127 9.77909 0.541523 10.2219 0.529175C10.1461 0.600121 10.0875 0.687276 10.0502 0.784115C10.0129 0.880955 9.99804 0.984971 10.0067 1.08838L9.44922 1.20127Z" fill="black"/>
<path d="M6.3067 1.66175C6.32606 1.59619 6.32324 1.52607 6.29868 1.46228C6.27412 1.39849 6.22919 1.34459 6.17087 1.30894C5.96624 1.1784 5.12656 1.26836 4.74023 1.48534C4.74023 1.48534 5.60285 1.56825 5.70517 1.77112C5.80748 1.97398 6.26613 1.89989 6.3067 1.66175Z" fill="black"/>
<path d="M11.2558 3.21229C11.7565 3.03429 12.3023 3.0287 12.8064 3.19641C12.8064 3.19641 11.7074 3.26697 11.4852 3.67094C11.2629 4.0749 10.7637 3.15407 10.7637 3.15407L11.2558 3.21229Z" fill="black"/>
<path d="M11.2556 2.76069C11.2556 2.76069 12.3511 2.61781 12.9791 2.86654C12.9791 2.86654 11.7196 2.82067 11.3791 3.3587C11.0387 3.89674 11.2556 2.76069 11.2556 2.76069Z" fill="black"/>
<path d="M7.33183 3.15938C7.18349 3.71601 7.2321 4.3068 7.46942 4.8317C7.46942 4.8317 6.62092 3.82972 6.70735 3.35166C6.79379 2.87361 7.33183 3.15938 7.33183 3.15938Z" fill="black"/>
<path d="M10.9011 3.62866C10.8543 3.78691 10.756 3.92498 10.6218 4.02089C10.4875 4.11679 10.325 4.16501 10.1602 4.15787C10.1602 4.15787 10.6753 3.62866 10.6435 3.26526C10.6118 2.90187 10.9011 3.62866 10.9011 3.62866Z" fill="black"/>
<path d="M8.12505 6.0295C8.2858 6.0295 8.41612 5.78072 8.41612 5.47383C8.41612 5.16694 8.2858 4.91815 8.12505 4.91815C7.9643 4.91815 7.83398 5.16694 7.83398 5.47383C7.83398 5.78072 7.9643 6.0295 8.12505 6.0295Z" fill="black"/>
<path d="M9.33876 6.02951C9.47516 6.02951 9.58573 5.81785 9.58573 5.55675C9.58573 5.29565 9.47516 5.08398 9.33876 5.08398C9.20237 5.08398 9.0918 5.29565 9.0918 5.55675C9.0918 5.81785 9.20237 6.02951 9.33876 6.02951Z" fill="black"/>
<path d="M7.63672 4.70997C7.77039 4.59559 7.94255 4.53631 8.1183 4.54415C8.20641 4.54967 8.29237 4.57372 8.37056 4.61471C8.44491 4.65826 8.51116 4.71436 8.56637 4.78053C8.48346 4.75759 8.40937 4.72055 8.33528 4.69938C8.26458 4.67889 8.19179 4.66646 8.1183 4.66234C7.95649 4.65984 7.79491 4.67582 7.63672 4.70997Z" fill="black"/>
<path d="M9.01172 4.90935C9.04864 4.85434 9.09682 4.80781 9.15308 4.77283C9.20935 4.73786 9.2724 4.71524 9.33807 4.70648C9.40509 4.69619 9.47362 4.70286 9.5374 4.72589C9.59868 4.74889 9.65454 4.78433 9.70146 4.82996C9.63443 4.82996 9.57445 4.81762 9.52505 4.81585C9.47054 4.80969 9.41551 4.80969 9.361 4.81585C9.24246 4.83853 9.12573 4.86977 9.01172 4.90935Z" fill="black"/>
<path d="M9.88145 6.80218C9.8056 7.45135 9.30461 7.91705 8.74011 7.88177H8.65191C8.41052 7.83209 8.19086 7.70775 8.02402 7.52635C7.85718 7.34495 7.75162 7.11568 7.72226 6.87098C7.70456 6.73986 7.70456 6.60695 7.72226 6.47583L9.88145 6.80218Z" fill="#BA314F"/>
<path d="M8.79029 7.95582H8.72854L8.63329 7.93818C8.37785 7.88854 8.14462 7.75946 7.9669 7.56939C7.78918 7.37931 7.67605 7.13795 7.64366 6.87976C7.6222 6.74318 7.61924 6.60434 7.63484 6.46697L7.64366 6.39288L9.95279 6.74569V6.81449C9.86811 7.46542 9.36713 7.95582 8.79029 7.95582ZM7.77067 6.54459C7.76528 6.64483 7.7706 6.74536 7.78655 6.84448C7.81077 7.07449 7.90705 7.29097 8.06166 7.463C8.21626 7.63502 8.42126 7.7538 8.6474 7.80235L8.73031 7.81117C9.23659 7.84116 9.68818 7.43014 9.78873 6.86212L7.77067 6.54459Z" fill="black"/>
<path d="M8.7327 7.88177H8.64449C8.4031 7.83208 8.18344 7.70775 8.0166 7.52635C7.84976 7.34495 7.7442 7.11567 7.71484 6.87097C7.87907 6.88353 8.03809 6.93424 8.17927 7.01907C8.32045 7.1039 8.43988 7.22051 8.52807 7.35961C8.633 7.51694 8.7028 7.69503 8.7327 7.88177Z" fill="#FF557A"/>
<path d="M8.82316 7.95936H8.7332L8.63265 7.93819C8.37721 7.88854 8.14398 7.75947 7.96626 7.5694C7.78854 7.37932 7.67541 7.13796 7.64302 6.87977L7.62891 6.79156H7.71887C7.89484 6.80578 8.06503 6.86105 8.21576 6.95296C8.36649 7.04487 8.49357 7.17085 8.58678 7.32078C8.69834 7.48948 8.77234 7.68018 8.80376 7.87998L8.82316 7.95936ZM7.80884 6.94327C7.84881 7.1527 7.9496 7.34571 8.09863 7.49818C8.24765 7.65066 8.4383 7.75584 8.64676 7.8006C8.61301 7.65469 8.55325 7.51606 8.47035 7.39134C8.3963 7.27455 8.29879 7.17441 8.184 7.09728C8.06922 7.02015 7.93966 6.96771 7.80355 6.94327H7.80884Z" fill="black"/>
<path d="M8.66941 16.9612C8.64883 16.9612 8.62909 16.9531 8.61453 16.9385C8.59997 16.9239 8.5918 16.9042 8.5918 16.8836V15.6841C8.5918 15.6635 8.59997 15.6437 8.61453 15.6292C8.62909 15.6146 8.64883 15.6064 8.66941 15.6064C8.68969 15.6069 8.70899 15.6153 8.72316 15.6298C8.73734 15.6443 8.74527 15.6638 8.74527 15.6841V16.8836C8.7455 16.8937 8.74372 16.9038 8.74001 16.9132C8.7363 16.9226 8.73075 16.9312 8.72368 16.9384C8.71662 16.9456 8.70818 16.9514 8.69886 16.9553C8.68954 16.9592 8.67953 16.9612 8.66941 16.9612Z" fill="black"/>
<path d="M2.96808 14.8374L2.60292 15.6877L2.48121 15.9699L2.37183 16.2292C2.30724 16.3858 2.19949 16.5208 2.06115 16.6186C1.9228 16.7163 1.75954 16.7728 1.59036 16.7814C1.43989 16.7746 1.29126 16.7454 1.14935 16.6949L1.06115 16.6667L0.895332 16.6032L0.734804 16.5273L0.662479 16.4903C0.529466 16.4211 0.407084 16.3332 0.299086 16.2292H0.290266C0.181509 16.0993 0.111575 15.9413 0.0884865 15.7735C0.0653977 15.6056 0.0900884 15.4346 0.159727 15.2802L0.269097 15.0279L0.390816 14.7457L0.755973 13.8954L2.96808 14.8374Z" fill="#FDC997"/>
<path d="M0.836006 14.0894L2.76587 14.9185L2.46069 15.6241L2.34073 15.9064L2.23136 16.1604C2.17898 16.2904 2.09122 16.4031 1.97804 16.4857C1.86485 16.5683 1.73077 16.6176 1.59102 16.6279C1.45728 16.6208 1.32531 16.5941 1.1994 16.5485L1.12884 16.5238L0.968309 16.462L0.814837 16.3879L0.74604 16.3544C0.623812 16.2926 0.51145 16.2129 0.412636 16.118C0.323476 16.0101 0.26658 15.8791 0.248482 15.7403C0.230384 15.6014 0.251817 15.4603 0.310321 15.333L0.417928 15.079L0.53259 14.7968L0.836006 14.0912V14.0894ZM0.756624 13.8883L0.391467 14.7368L0.269748 15.0191C0.269748 15.0191 0.230939 15.1108 0.160378 15.2713C0.0889304 15.4269 0.0632641 15.5996 0.0863814 15.7692C0.109499 15.9389 0.180444 16.0984 0.290917 16.2292L0.299737 16.2398C0.408932 16.3434 0.532513 16.4307 0.666658 16.4991L0.738983 16.5361L0.899511 16.612L1.06533 16.6755L1.14118 16.7037C1.28309 16.7542 1.43172 16.7834 1.5822 16.7901H1.59102C1.76118 16.7808 1.92514 16.7231 2.06359 16.6237C2.20204 16.5243 2.30921 16.3874 2.37249 16.2292L2.48186 15.9769L2.60358 15.6947L2.96873 14.8444L0.756624 13.8865V13.8883Z" fill="black"/>
<path d="M14.375 14.8374L14.7402 15.6876L14.8619 15.9699L14.9712 16.2292C15.0344 16.3867 15.1411 16.523 15.2788 16.622C15.4166 16.721 15.5798 16.7788 15.7492 16.7884H15.7615C15.9114 16.7817 16.0595 16.7525 16.2008 16.7019L16.2784 16.6737L16.4442 16.6102L16.6047 16.5344L16.6771 16.4973C16.8118 16.4263 16.9354 16.3359 17.044 16.2292L17.0528 16.2186C17.1616 16.0887 17.2315 15.9307 17.2546 15.7628C17.2777 15.595 17.253 15.424 17.1834 15.2695L17.074 15.0173L16.9523 14.735L16.5853 13.8865L14.375 14.8374Z" fill="#FDC997"/>
<path d="M16.506 14.0894L16.8111 14.795L16.9311 15.0773L17.0405 15.3313C17.0994 15.4596 17.121 15.6019 17.1029 15.742C17.0848 15.882 17.0277 16.0142 16.9382 16.1233C16.8392 16.2137 16.7289 16.2908 16.61 16.3527L16.543 16.3879L16.3878 16.4603L16.229 16.522L16.1567 16.5485C16.0279 16.5949 15.893 16.6216 15.7562 16.6279C15.6166 16.6179 15.4826 16.569 15.3694 16.4867C15.2562 16.4044 15.1684 16.2919 15.1159 16.1621L14.9977 15.9081L14.876 15.6259L14.5726 14.9203L16.5007 14.0912L16.506 14.0894ZM16.5853 13.8865L14.375 14.8374L14.7402 15.6876L14.8619 15.9699L14.9712 16.2292C15.0344 16.3867 15.1411 16.523 15.2788 16.622C15.4166 16.721 15.5798 16.7788 15.7492 16.7884H15.7615C15.9114 16.7817 16.0595 16.7525 16.2008 16.7019L16.2784 16.6737L16.4442 16.6102L16.6047 16.5344L16.6771 16.4973C16.8118 16.4263 16.9354 16.3359 17.044 16.2292L17.0528 16.2186C17.1616 16.0887 17.2315 15.9307 17.2546 15.7628C17.2777 15.595 17.253 15.424 17.1834 15.2695L17.074 15.0173L16.9523 14.735L16.5853 13.8865Z" fill="black"/>
<path d="M5.10602 17.7569C5.10602 17.7569 6.35496 16.0052 6.35496 14.2888C6.35496 12.5724 4.76733 10.3461 4.76733 10.3461C4.76733 10.3461 3.09501 14.7051 2.9239 16.3051C2.9239 16.3051 2.78631 15.4425 0.0820312 14.5798C0.0820312 14.5798 2.63107 10.7624 3.2185 8.88904C3.35609 8.45155 6.12387 7.77593 7.46278 8.21694V17.7569H5.10602Z" fill="#0C0C0C"/>
<path d="M7.46201 17.8345H5.10525C5.091 17.8344 5.07705 17.8304 5.06491 17.823C5.05278 17.8155 5.04293 17.8048 5.03646 17.7921C5.02912 17.7802 5.02524 17.7665 5.02524 17.7524C5.02524 17.7384 5.02912 17.7247 5.03646 17.7128C5.0488 17.6951 6.27129 15.9593 6.27129 14.294C6.27129 12.8528 5.10173 11.0023 4.77714 10.5172C4.49842 11.2705 3.1507 14.9009 3.00252 16.3139C2.99973 16.3322 2.99045 16.349 2.97637 16.3611C2.96229 16.3732 2.94434 16.3798 2.92578 16.3798C2.90722 16.3798 2.88927 16.3732 2.87519 16.3611C2.86111 16.349 2.85183 16.3322 2.84904 16.3139C2.84904 16.3139 2.65853 15.483 0.0565662 14.6539C0.0445847 14.6508 0.0335288 14.6448 0.0243222 14.6365C0.0151157 14.6282 0.00802576 14.6179 0.00364492 14.6063C0.000175128 14.5948 -0.000832813 14.5828 0.000687419 14.5709C0.00220765 14.5591 0.00622159 14.5477 0.0124651 14.5375C0.0389258 14.4987 2.56327 10.706 3.14011 8.86608C3.1701 8.76906 3.27771 8.6738 3.47175 8.57502C4.29027 8.15517 6.38066 7.7812 7.48142 8.14459C7.49696 8.14939 7.51061 8.15896 7.52042 8.17194C7.53023 8.18492 7.53572 8.20065 7.5361 8.21692V17.7569C7.53612 17.7768 7.52843 17.7961 7.51463 17.8105C7.50083 17.825 7.48198 17.8336 7.46201 17.8345ZM5.24991 17.6792H7.3844V8.27336C6.27481 7.9382 4.23735 8.35451 3.54408 8.71261C3.33239 8.82198 3.29711 8.88902 3.29005 8.91195C2.76084 10.6178 0.580487 13.9624 0.201218 14.5375C2.01818 15.1302 2.64971 15.7264 2.8808 16.0528C3.16834 14.3117 4.62543 10.4961 4.6907 10.3267C4.69563 10.3137 4.70395 10.3023 4.71481 10.2936C4.72568 10.2849 4.73867 10.2793 4.75245 10.2773C4.76651 10.2755 4.78079 10.2775 4.79382 10.2831C4.80685 10.2887 4.81815 10.2976 4.82654 10.3091C4.8918 10.4026 6.43005 12.5829 6.43005 14.2976C6.43005 15.7705 5.53392 17.2506 5.24991 17.6792Z" fill="black"/>
<path d="M12.2392 17.7569C12.2392 17.7569 10.9903 16.0052 10.9903 14.2887C10.9903 12.5723 12.5779 10.3461 12.5779 10.3461C12.5779 10.3461 14.2467 14.6998 14.4178 16.2998C14.4178 16.2998 14.5554 15.4371 17.2597 14.5745C17.2597 14.5745 14.7106 10.7571 14.1232 8.88373C13.9856 8.44624 11.2178 7.77061 9.87891 8.21163V17.7516L12.2392 17.7569Z" fill="#0C0C0C"/>
<path d="M12.2391 17.8345H9.88231C9.86172 17.8345 9.84198 17.8263 9.82742 17.8117C9.81286 17.7972 9.80469 17.7774 9.80469 17.7569V8.21692C9.80468 8.2008 9.80981 8.18511 9.81933 8.1721C9.82884 8.1591 9.84225 8.14946 9.85761 8.14459C10.9601 7.7812 13.0505 8.15517 13.869 8.57502C14.0613 8.6738 14.1707 8.76906 14.2007 8.86608C14.7775 10.706 17.3019 14.4987 17.3266 14.5375C17.3331 14.5474 17.3373 14.5588 17.3388 14.5706C17.3402 14.5824 17.339 14.5945 17.335 14.6057C17.3311 14.617 17.3246 14.6272 17.3161 14.6355C17.3076 14.6439 17.2973 14.6502 17.286 14.6539C14.6858 15.483 14.4988 16.3103 14.497 16.3192C14.493 16.337 14.4828 16.353 14.4684 16.3642C14.4539 16.3755 14.436 16.3814 14.4177 16.3809C14.3993 16.3806 14.3816 16.3736 14.368 16.3613C14.3544 16.349 14.3457 16.3321 14.3436 16.3139C14.1936 14.9026 12.8459 11.2705 12.5619 10.5172C12.2373 11.0023 11.0677 12.8528 11.0677 14.2887C11.0677 15.9558 12.2902 17.6898 12.3026 17.7075C12.3095 17.7195 12.3132 17.7332 12.3132 17.7472C12.3132 17.7611 12.3095 17.7748 12.3026 17.7868C12.297 17.7996 12.2882 17.8106 12.277 17.819C12.2659 17.8273 12.2528 17.8326 12.2391 17.8345ZM9.95992 17.6792H12.0944C11.8104 17.2506 10.9143 15.7705 10.9143 14.2887C10.9143 12.5741 12.4525 10.3937 12.5178 10.3002C12.5259 10.289 12.5369 10.2801 12.5496 10.2745C12.5623 10.2689 12.5763 10.2668 12.5901 10.2685C12.6041 10.2703 12.6174 10.2759 12.6286 10.2846C12.6397 10.2932 12.6484 10.3047 12.6536 10.3179C12.7189 10.4943 14.176 14.3029 14.4635 16.044C14.6858 15.7211 15.3261 15.1249 17.1431 14.5322C16.7621 13.9624 14.5888 10.6178 14.0543 8.91195C14.0543 8.89254 14.0119 8.82198 13.7985 8.71261C13.0929 8.3598 11.0695 7.94172 9.95992 8.27336V17.6792Z" fill="black"/>
<path d="M12.582 10.4272C12.5663 10.4275 12.5509 10.4229 12.538 10.414C12.525 10.4052 12.5151 10.3925 12.5097 10.3778C12.4544 10.23 12.3902 10.0857 12.3174 9.94565C12.308 9.92761 12.306 9.90659 12.312 9.88712C12.3179 9.86765 12.3313 9.8513 12.3491 9.84158C12.358 9.83668 12.3678 9.83361 12.3779 9.83256C12.388 9.83151 12.3982 9.83249 12.4079 9.83545C12.4176 9.83842 12.4266 9.84329 12.4344 9.8498C12.4422 9.8563 12.4486 9.86431 12.4532 9.87333C12.5294 10.019 12.5966 10.1692 12.6543 10.3232C12.6612 10.3426 12.6603 10.364 12.6518 10.3827C12.6432 10.4015 12.6277 10.4162 12.6085 10.4237C12.5999 10.4266 12.591 10.4278 12.582 10.4272Z" fill="black"/>
<path d="M4.7666 10.4272C4.75726 10.4289 4.74772 10.4289 4.73838 10.4272C4.71949 10.4194 4.70435 10.4045 4.69614 10.3858C4.68792 10.3671 4.68725 10.3459 4.69427 10.3267C4.75081 10.1737 4.81619 10.0241 4.89008 9.87862C4.8949 9.86954 4.90147 9.8615 4.90941 9.85497C4.91736 9.84845 4.92652 9.84357 4.93637 9.84061C4.94621 9.83766 4.95655 9.83669 4.96677 9.83777C4.977 9.83884 4.98691 9.84193 4.99593 9.84687C5.0048 9.85166 5.01263 9.85817 5.01896 9.86603C5.02528 9.87388 5.02998 9.88292 5.03277 9.89261C5.03557 9.9023 5.0364 9.91245 5.03522 9.92247C5.03404 9.93249 5.03088 9.94217 5.02591 9.95095C4.95506 10.0917 4.89147 10.2359 4.8354 10.3831C4.82934 10.3963 4.81964 10.4074 4.80745 10.4152C4.79525 10.4231 4.78108 10.4272 4.7666 10.4272Z" fill="black"/>
<path d="M8.67245 10.9371C8.65818 10.9369 8.64424 10.9328 8.63214 10.9253C8.62005 10.9177 8.61028 10.9069 8.6039 10.8942C8.59752 10.8814 8.59478 10.8671 8.59598 10.8529C8.59718 10.8387 8.60228 10.8251 8.61071 10.8136C9.16043 10.0251 9.56432 9.14444 9.8032 8.2134C9.80528 8.20349 9.80933 8.1941 9.81509 8.18577C9.82086 8.17745 9.82824 8.17037 9.83679 8.16495C9.84534 8.15952 9.85489 8.15586 9.86487 8.15418C9.87486 8.15251 9.88508 8.15285 9.89493 8.15518C9.90496 8.15703 9.9145 8.16093 9.92295 8.16664C9.9314 8.17234 9.93859 8.17973 9.94405 8.18835C9.94952 8.19696 9.95314 8.2066 9.95471 8.21668C9.95627 8.22676 9.95574 8.23705 9.95314 8.24691C9.70906 9.19881 9.2962 10.0992 8.73419 10.9053C8.72698 10.9149 8.71767 10.9228 8.70697 10.9283C8.69628 10.9338 8.68447 10.9368 8.67245 10.9371Z" fill="black"/>
<path d="M8.93305 10.7607L8.70196 10.5843C8.67539 10.5642 8.64506 10.5497 8.61277 10.5416C8.58048 10.5335 8.54689 10.5319 8.51399 10.537C8.48108 10.5421 8.44954 10.5537 8.42123 10.5713C8.39291 10.5888 8.3684 10.6118 8.34915 10.639L7.76525 11.4504C7.74462 11.4767 7.72957 11.5069 7.72103 11.5392C7.7125 11.5715 7.71065 11.6052 7.7156 11.6382C7.72056 11.6713 7.73221 11.703 7.74985 11.7313C7.76749 11.7597 7.79074 11.7842 7.81817 11.8032L8.04926 11.9796C8.07528 11.9989 8.10485 12.0128 8.13626 12.0205C8.16767 12.0283 8.2003 12.0297 8.23227 12.0248C8.26425 12.0199 8.29493 12.0087 8.32256 11.9918C8.35019 11.975 8.37421 11.9529 8.39325 11.9267L8.98597 11.1135C9.0066 11.0872 9.02165 11.057 9.03019 11.0247C9.03872 10.9924 9.04057 10.9587 9.03562 10.9257C9.03066 10.8926 9.01901 10.861 9.00137 10.8326C8.98373 10.8042 8.96048 10.7797 8.93305 10.7607ZM8.60493 10.9636C8.58341 10.9476 8.56909 10.9238 8.56512 10.8974C8.56115 10.8709 8.56786 10.8439 8.58377 10.8224C8.59967 10.8009 8.62348 10.7866 8.64994 10.7826C8.67641 10.7786 8.70337 10.7854 8.72489 10.8013C8.73578 10.8089 8.745 10.8188 8.752 10.8301C8.759 10.8415 8.76362 10.8541 8.7656 10.8673C8.76758 10.8805 8.76687 10.8939 8.76351 10.9068C8.76015 10.9197 8.75421 10.9318 8.74606 10.9424C8.73835 10.9532 8.72856 10.9624 8.71727 10.9694C8.70598 10.9765 8.69341 10.9812 8.68028 10.9833C8.66716 10.9854 8.65374 10.9849 8.64081 10.9819C8.62787 10.9788 8.61568 10.9731 8.60493 10.9653V10.9636Z" fill="#686868"/>
<path d="M8.55554 10.5843C8.59871 10.5836 8.64088 10.5973 8.6755 10.6231L8.90835 10.7995C8.95187 10.8311 8.98105 10.8787 8.9895 10.9318C8.99712 10.9852 8.98385 11.0396 8.95245 11.0835L8.36326 11.8897C8.3309 11.933 8.28283 11.9619 8.22939 11.9701C8.17595 11.9784 8.1214 11.9653 8.07749 11.9338L7.8464 11.7574C7.80277 11.7251 7.77362 11.6769 7.76525 11.6233C7.7611 11.5968 7.76223 11.5698 7.76859 11.5437C7.77495 11.5177 7.7864 11.4932 7.8023 11.4716L8.39149 10.6672C8.41027 10.6413 8.43496 10.6203 8.46349 10.6059C8.49202 10.5915 8.52358 10.5841 8.55554 10.5843ZM8.66491 11.0235C8.68754 11.0237 8.7099 11.0186 8.73014 11.0084C8.75038 10.9983 8.76793 10.9835 8.78134 10.9653C8.79269 10.9498 8.80088 10.9322 8.80542 10.9135C8.80997 10.8948 8.8108 10.8754 8.80785 10.8564C8.8049 10.8374 8.79824 10.8192 8.78824 10.8027C8.77824 10.7863 8.76511 10.772 8.74959 10.7607C8.72488 10.7431 8.69523 10.7338 8.66491 10.7342C8.64253 10.734 8.62042 10.7392 8.60047 10.7493C8.58051 10.7594 8.56328 10.7742 8.55025 10.7924C8.52779 10.8231 8.51834 10.8615 8.52395 10.8991C8.52956 10.9368 8.54979 10.9707 8.58024 10.9935C8.60505 11.0109 8.63463 11.0201 8.66491 11.02V11.0235ZM8.55554 10.5384C8.51673 10.5382 8.47842 10.5472 8.44377 10.5647C8.40911 10.5822 8.3791 10.6076 8.35621 10.639L7.76525 11.4504C7.74462 11.4767 7.72957 11.5069 7.72103 11.5392C7.7125 11.5715 7.71065 11.6052 7.7156 11.6382C7.72056 11.6713 7.73221 11.7029 7.74985 11.7313C7.76749 11.7597 7.79074 11.7842 7.81817 11.8032L8.04926 11.9796C8.10197 12.018 8.16772 12.034 8.23216 12.0241C8.2966 12.0141 8.35451 11.9791 8.39325 11.9267L8.98597 11.1135C9.0066 11.0872 9.02165 11.057 9.03019 11.0247C9.03872 10.9924 9.04057 10.9587 9.03562 10.9257C9.03066 10.8926 9.01901 10.8609 9.00137 10.8326C8.98373 10.8042 8.96048 10.7797 8.93305 10.7607L8.70196 10.5843C8.65921 10.5539 8.60796 10.5379 8.55554 10.5384ZM8.66491 10.9776C8.64332 10.978 8.62221 10.9712 8.60493 10.9582C8.59424 10.9504 8.5852 10.9405 8.57835 10.9292C8.57149 10.9178 8.56694 10.9052 8.56498 10.8921C8.56301 10.879 8.56366 10.8656 8.56688 10.8527C8.57011 10.8399 8.57584 10.8278 8.58377 10.8171C8.59326 10.8046 8.60552 10.7944 8.6196 10.7873C8.63367 10.7803 8.64918 10.7766 8.66491 10.7765C8.68655 10.7759 8.70775 10.7827 8.72489 10.796C8.74002 10.809 8.75089 10.8264 8.75613 10.8457C8.76136 10.865 8.76072 10.8854 8.75428 10.9043C8.74784 10.9233 8.7359 10.9399 8.71998 10.952C8.70406 10.9641 8.68488 10.9712 8.66491 10.9724V10.9776Z" fill="black"/>
<path d="M7.94226 11.5704C7.93826 11.5717 7.93392 11.5717 7.92991 11.5704C7.92799 11.5686 7.92646 11.5664 7.92541 11.5639C7.92437 11.5615 7.92383 11.5589 7.92383 11.5563C7.92383 11.5536 7.92437 11.551 7.92541 11.5486C7.92646 11.5461 7.92799 11.544 7.92991 11.5421L8.26508 11.0817C8.26705 11.0798 8.26939 11.0782 8.27196 11.0771C8.27453 11.0761 8.27729 11.0755 8.28008 11.0755C8.28286 11.0755 8.28562 11.0761 8.28819 11.0771C8.29077 11.0782 8.2931 11.0798 8.29507 11.0817C8.29854 11.0856 8.30046 11.0906 8.30046 11.0958C8.30046 11.101 8.29854 11.1061 8.29507 11.11L7.95814 11.5704C7.95305 11.5724 7.94735 11.5724 7.94226 11.5704Z" fill="black"/>
<path d="M8.25281 11.7979C8.25086 11.7987 8.24876 11.7991 8.24664 11.7991C8.24451 11.7991 8.24241 11.7987 8.24046 11.7979C8.23854 11.7961 8.23701 11.7939 8.23596 11.7914C8.23491 11.789 8.23438 11.7864 8.23438 11.7838C8.23438 11.7811 8.23491 11.7785 8.23596 11.7761C8.23701 11.7736 8.23854 11.7715 8.24046 11.7696L8.51036 11.3992C8.51198 11.3969 8.51404 11.3949 8.51643 11.3934C8.51881 11.3919 8.52147 11.3908 8.52426 11.3903C8.52704 11.3899 8.5299 11.3899 8.53266 11.3905C8.53542 11.3911 8.53803 11.3923 8.54035 11.3939C8.54266 11.3955 8.54464 11.3976 8.54616 11.4C8.54768 11.4024 8.54871 11.405 8.54921 11.4078C8.5497 11.4106 8.54963 11.4134 8.54902 11.4162C8.54841 11.419 8.54726 11.4216 8.54564 11.4239L8.27398 11.7943C8.27108 11.7968 8.2676 11.7984 8.26387 11.799C8.26015 11.7996 8.25633 11.7992 8.25281 11.7979Z" fill="black"/>
<path d="M8.09475 11.6832H8.0824C8.08042 11.6813 8.07886 11.6789 8.07779 11.6764C8.07672 11.6738 8.07617 11.671 8.07617 11.6682C8.07617 11.6655 8.07672 11.6627 8.07779 11.6601C8.07886 11.6576 8.08042 11.6552 8.0824 11.6533L8.49342 11.0923C8.49539 11.0903 8.49772 11.0887 8.5003 11.0877C8.50287 11.0866 8.50563 11.0861 8.50841 11.0861C8.5112 11.0861 8.51396 11.0866 8.51653 11.0877C8.5191 11.0887 8.52144 11.0903 8.52341 11.0923C8.52538 11.0943 8.52695 11.0966 8.52802 11.0992C8.52908 11.1017 8.52963 11.1045 8.52963 11.1073C8.52963 11.1101 8.52908 11.1128 8.52802 11.1154C8.52695 11.118 8.52538 11.1203 8.52341 11.1223L8.11768 11.6744C8.11525 11.6781 8.11173 11.6809 8.10762 11.6825C8.10351 11.6841 8.09901 11.6843 8.09475 11.6832Z" fill="black"/>
<path d="M8.72246 12.1049C8.67134 12.1048 8.62178 12.0873 8.58199 12.0552C8.5422 12.0231 8.51458 11.9784 8.50372 11.9285L8.29556 10.9477C8.28964 10.9186 8.2895 10.8886 8.29516 10.8595C8.30083 10.8304 8.31217 10.8026 8.32856 10.7779C8.34494 10.7532 8.36604 10.7319 8.39064 10.7153C8.41525 10.6987 8.44288 10.6872 8.47196 10.6813L8.75245 10.6248C8.76769 10.6231 8.78307 10.6231 8.79831 10.6248C8.84964 10.6248 8.89946 10.6422 8.93954 10.6743C8.97963 10.7064 9.00759 10.7512 9.01882 10.8012L9.21815 11.7785C9.22408 11.8076 9.22421 11.8375 9.21855 11.8667C9.21289 11.8958 9.20154 11.9235 9.18516 11.9483C9.16878 11.973 9.14768 11.9943 9.12307 12.0108C9.09846 12.0274 9.07083 12.039 9.04175 12.0449L8.76127 12.1013C8.74848 12.1038 8.73548 12.105 8.72246 12.1049ZM8.66601 10.7607H8.64837C8.61669 10.7675 8.58895 10.7864 8.57113 10.8135C8.55331 10.8406 8.54684 10.8735 8.55311 10.9053C8.55912 10.9327 8.57427 10.9572 8.59607 10.9749C8.61787 10.9925 8.64503 11.0022 8.67306 11.0023H8.69776C8.72981 10.9981 8.75887 10.9814 8.77856 10.9557C8.79824 10.9301 8.80693 10.8977 8.80272 10.8656C8.79851 10.8336 8.78174 10.8045 8.7561 10.7848C8.73046 10.7651 8.69806 10.7565 8.66601 10.7607Z" fill="#686868"/>
<path d="M8.80481 10.6407C8.85183 10.641 8.89731 10.6574 8.93361 10.6873C8.96992 10.7172 8.99483 10.7587 9.00415 10.8047L9.20348 11.782C9.20889 11.8082 9.20906 11.8352 9.204 11.8614C9.19894 11.8877 9.18874 11.9127 9.17398 11.935C9.15923 11.9573 9.14021 11.9764 9.11803 11.9914C9.09585 12.0063 9.07093 12.0167 9.04472 12.0219L8.76424 12.0801H8.7219C8.67488 12.0799 8.6294 12.0634 8.5931 12.0335C8.55679 12.0036 8.53188 11.9622 8.52256 11.9161L8.32323 10.937C8.31327 10.8843 8.32428 10.8297 8.35392 10.7849C8.38357 10.7401 8.42951 10.7086 8.48199 10.6971L8.76424 10.6407C8.7777 10.6388 8.79135 10.6388 8.80481 10.6407ZM8.66545 11.027H8.69544C8.73208 11.0218 8.76526 11.0026 8.78802 10.9734C8.81077 10.9442 8.82131 10.9073 8.81743 10.8705C8.81354 10.8337 8.79553 10.7999 8.76718 10.7761C8.73884 10.7523 8.70237 10.7404 8.66545 10.743H8.63723C8.60099 10.7485 8.56824 10.7676 8.54574 10.7966C8.52324 10.8255 8.51271 10.862 8.51634 10.8984C8.51996 10.9349 8.53746 10.9686 8.56521 10.9925C8.59296 11.0164 8.62885 11.0288 8.66545 11.027ZM8.80481 10.5983C8.78839 10.5966 8.77184 10.5966 8.75542 10.5983L8.47317 10.6566C8.44157 10.6629 8.41154 10.6754 8.38481 10.6934C8.35808 10.7114 8.33519 10.7345 8.31747 10.7614C8.29975 10.7883 8.28754 10.8185 8.28157 10.8501C8.27559 10.8818 8.27596 10.9143 8.28265 10.9459L8.48199 11.9231C8.493 11.9787 8.52291 12.0288 8.56665 12.0648C8.61038 12.1008 8.66524 12.1206 8.7219 12.1207C8.73831 12.1225 8.75488 12.1225 8.77129 12.1207L9.05354 12.0643C9.11736 12.0507 9.17329 12.0125 9.20926 11.9581C9.24523 11.9036 9.25836 11.8372 9.24582 11.7732L9.04472 10.7959C9.03371 10.7403 9.0038 10.6903 8.96006 10.6543C8.91633 10.6183 8.86147 10.5985 8.80481 10.5983ZM8.66545 10.9847C8.64051 10.9844 8.61655 10.9749 8.59824 10.9579C8.57993 10.941 8.56857 10.9178 8.56637 10.893C8.56417 10.8681 8.57129 10.8434 8.58634 10.8235C8.60139 10.8036 8.6233 10.79 8.64781 10.7853H8.66721C8.69248 10.7847 8.71707 10.7936 8.73608 10.8102C8.75509 10.8269 8.76713 10.8501 8.7698 10.8752C8.77247 10.9004 8.76557 10.9256 8.75048 10.9459C8.7354 10.9662 8.71322 10.98 8.68838 10.9847H8.66545Z" fill="black"/>
<path d="M8.67114 11.8879C8.66858 11.8884 8.66596 11.8884 8.66341 11.8878C8.66086 11.8873 8.65844 11.8863 8.65631 11.8848C8.65417 11.8833 8.65235 11.8814 8.65095 11.8792C8.64956 11.877 8.64863 11.8746 8.6482 11.872L8.53354 11.3146C8.53304 11.3118 8.5331 11.3089 8.53372 11.3061C8.53434 11.3034 8.5355 11.3008 8.53715 11.2985C8.53879 11.2962 8.54088 11.2942 8.54329 11.2927C8.5457 11.2913 8.54839 11.2903 8.55118 11.2899C8.55385 11.2891 8.55666 11.2889 8.55942 11.2893C8.56218 11.2897 8.56482 11.2906 8.56716 11.2921C8.5695 11.2937 8.5715 11.2956 8.573 11.298C8.5745 11.3003 8.57549 11.303 8.57588 11.3057L8.68878 11.8632C8.68956 11.8658 8.68977 11.8686 8.68937 11.8714C8.68898 11.8742 8.68799 11.8768 8.68649 11.8791C8.68498 11.8815 8.68299 11.8835 8.68064 11.885C8.6783 11.8865 8.67566 11.8875 8.6729 11.8879H8.67114Z" fill="black"/>
<path d="M9.04694 11.819C9.04189 11.8191 9.03697 11.8174 9.03309 11.8141C9.02921 11.8109 9.02661 11.8064 9.02577 11.8014L8.93404 11.3533C8.93292 11.3477 8.93393 11.3419 8.93686 11.337C8.9398 11.3321 8.94445 11.3285 8.94992 11.3269C8.9527 11.3264 8.95556 11.3264 8.95832 11.3271C8.96108 11.3277 8.96369 11.3288 8.96599 11.3305C8.96829 11.3321 8.97024 11.3342 8.97172 11.3366C8.9732 11.339 8.97419 11.3417 8.97461 11.3445L9.06634 11.7926C9.06713 11.7953 9.06733 11.7981 9.06694 11.8008C9.06654 11.8036 9.06556 11.8062 9.06405 11.8086C9.06255 11.8109 9.06055 11.8129 9.05821 11.8144C9.05587 11.8159 9.05322 11.8169 9.05047 11.8173L9.04694 11.819Z" fill="black"/>
<path d="M8.85992 11.8508C8.85487 11.8509 8.84996 11.8492 8.84607 11.8459C8.84219 11.8427 8.83959 11.8382 8.83875 11.8332L8.69939 11.1505C8.69873 11.1452 8.69996 11.1398 8.70286 11.1353C8.70576 11.1308 8.71015 11.1274 8.71527 11.1258C8.71805 11.1253 8.72091 11.1254 8.72367 11.126C8.72643 11.1266 8.72904 11.1278 8.73134 11.1294C8.73365 11.1311 8.73559 11.1332 8.73708 11.1356C8.73856 11.138 8.73954 11.1407 8.73997 11.1435L8.87933 11.8191C8.88011 11.8218 8.88032 11.8246 8.87992 11.8273C8.87953 11.8301 8.87854 11.8327 8.87703 11.8351C8.87553 11.8374 8.87354 11.8394 8.87119 11.8409C8.86885 11.8424 8.86621 11.8434 8.86345 11.8438L8.85992 11.8508Z" fill="black"/>
<path d="M8.67296 10.9371C8.66091 10.9369 8.64906 10.934 8.63834 10.9285C8.62762 10.923 8.61834 10.915 8.61122 10.9053C8.04822 10.0995 7.63473 9.19907 7.3905 8.24691C7.3883 8.23695 7.38808 8.22665 7.38986 8.2166C7.39164 8.20656 7.39538 8.19696 7.40087 8.18836C7.41195 8.17099 7.42948 8.15874 7.4496 8.1543C7.46971 8.14985 7.49077 8.15358 7.50814 8.16466C7.52551 8.17574 7.53776 8.19327 7.54221 8.21339C7.78018 9.14476 8.18414 10.0256 8.7347 10.8136C8.74668 10.83 8.75173 10.8505 8.74876 10.8706C8.7458 10.8908 8.73504 10.9089 8.71883 10.9212C8.70569 10.9314 8.68957 10.9369 8.67296 10.9371Z" fill="black"/>
</svg>
