<svg width="631" height="192" viewBox="0 0 631 192" fill="none" xmlns="http://www.w3.org/2000/svg">
<path d="M39.6461 136.45V132.173H15.6795V144.205H40.4973C42.3333 144.187 44.1538 144.546 45.848 145.26C47.5422 145.973 49.0749 147.027 50.3527 148.356C51.6906 149.641 52.751 151.191 53.4679 152.909C54.1847 154.626 54.5425 156.474 54.5189 158.337V171.886C54.5425 173.75 54.1847 175.598 53.4679 177.315C52.751 179.032 51.6906 180.582 50.3527 181.868C49.0751 183.198 47.5426 184.252 45.8484 184.966C44.1542 185.68 42.3336 186.04 40.4973 186.023H15.0165C13.1736 186.05 11.3448 185.696 9.64283 184.983C7.94087 184.27 6.40186 183.213 5.12072 181.877C3.79399 180.585 2.74382 179.033 2.03499 177.316C1.32616 175.6 0.973702 173.755 0.999353 171.895V165.5H14.3356C14.692 165.5 15.0338 165.643 15.2859 165.897C15.5379 166.151 15.6795 166.496 15.6795 166.855V171.132H39.6461V159.1H15.0075C13.1638 159.127 11.3343 158.772 9.63218 158.058C7.93003 157.343 6.39149 156.284 5.11176 154.945C3.78788 153.655 2.74006 152.105 2.03281 150.39C1.32556 148.676 0.973856 146.834 0.999353 144.978V131.428C0.973702 129.569 1.32616 127.724 2.03499 126.007C2.74382 124.291 3.79399 122.739 5.12072 121.447C6.40109 120.109 7.93976 119.051 9.64175 118.336C11.3437 117.621 13.173 117.266 15.0165 117.292H40.4973C42.3336 117.275 44.1542 117.634 45.8484 118.349C47.5426 119.063 49.0751 120.117 50.3527 121.447C51.6906 122.732 52.751 124.282 53.4679 126C54.1847 127.717 54.5425 129.565 54.5189 131.428V137.823H40.99C40.812 137.823 40.6358 137.788 40.4716 137.719C40.3073 137.649 40.1584 137.548 40.0334 137.42C39.9083 137.293 39.8097 137.141 39.7432 136.975C39.6768 136.808 39.6437 136.63 39.6461 136.45Z" fill="white"/>
<path d="M79.7084 171.132V118.534C79.7084 118.174 79.5669 117.83 79.3148 117.576C79.0628 117.322 78.721 117.179 78.3645 117.179H65.0283V186.032H118.543V172.483C118.543 172.123 118.402 171.779 118.15 171.525C117.898 171.27 117.556 171.128 117.199 171.128L79.7084 171.132Z" fill="white"/>
<path d="M172.529 130.819V117.269H124.224V186.032H172.529V172.483C172.529 172.123 172.387 171.779 172.135 171.525C171.883 171.27 171.541 171.128 171.185 171.128H139.092V159.1H161.822C162.179 159.1 162.52 158.958 162.772 158.704C163.024 158.45 163.166 158.105 163.166 157.746V145.551C163.166 145.192 163.024 144.847 162.772 144.593C162.52 144.339 162.179 144.196 161.822 144.196H139.092V132.173H171.185C171.541 132.173 171.883 132.031 172.135 131.777C172.387 131.523 172.529 131.178 172.529 130.819Z" fill="white"/>
<path d="M358.837 130.819V117.269H310.55V186.032H358.837V172.483C358.837 172.123 358.695 171.779 358.443 171.525C358.191 171.27 357.849 171.128 357.493 171.128H325.4V159.1H348.117C348.473 159.1 348.815 158.958 349.067 158.704C349.319 158.45 349.461 158.105 349.461 157.746V145.551C349.461 145.192 349.319 144.847 349.067 144.593C348.815 144.339 348.473 144.196 348.117 144.196H325.4V132.173H357.493C357.849 132.173 358.191 132.031 358.443 131.777C358.695 131.523 358.837 131.178 358.837 130.819Z" fill="white"/>
<path d="M235.42 117.274V186.032H220.548L196.59 146.929V184.677C196.59 185.036 196.448 185.381 196.196 185.635C195.944 185.889 195.602 186.032 195.246 186.032H181.905V117.274H196.59V117.369L220.548 156.476V118.629C220.548 118.269 220.689 117.925 220.941 117.671C221.193 117.416 221.535 117.274 221.891 117.274H235.42Z" fill="white"/>
<path d="M295.565 121.429C294.273 120.094 292.725 119.037 291.015 118.323C289.306 117.608 287.47 117.252 285.62 117.274H246.198V186.032H285.62C287.47 186.054 289.306 185.697 291.015 184.983C292.725 184.269 294.273 183.212 295.565 181.877C296.903 180.591 297.963 179.041 298.68 177.324C299.397 175.607 299.755 173.759 299.731 171.895V131.428C299.757 129.562 299.401 127.711 298.684 125.99C297.967 124.269 296.905 122.716 295.565 121.429ZM283.515 171.132H260.896V132.173H283.515C283.871 132.173 284.213 132.316 284.465 132.57C284.717 132.824 284.858 133.169 284.858 133.528V169.777C284.858 169.955 284.824 170.131 284.756 170.296C284.689 170.46 284.59 170.61 284.465 170.735C284.34 170.861 284.192 170.961 284.029 171.029C283.866 171.097 283.691 171.132 283.515 171.132Z" fill="white"/>
<path d="M417.463 159.195C418.797 157.915 419.855 156.373 420.572 154.664C421.29 152.955 421.651 151.115 421.634 149.259V131.505C421.577 127.757 420.068 124.181 417.431 121.539C414.793 118.898 411.236 117.401 407.518 117.369H368.097V186.018H382.781V163.495L387.006 163.472V163.405H387.61L406.063 185.535C406.188 185.686 406.345 185.808 406.523 185.891C406.7 185.974 406.893 186.018 407.088 186.018H420.304C420.66 186.018 421.002 185.876 421.254 185.622C421.506 185.367 421.648 185.023 421.648 184.663V181.452C421.648 181.131 421.535 180.821 421.329 180.576L406.864 163.4H407.527C409.381 163.421 411.219 163.059 412.927 162.335C414.636 161.612 416.18 160.544 417.463 159.195ZM405.417 148.5H382.799V132.173H405.417C405.774 132.173 406.116 132.316 406.368 132.57C406.62 132.824 406.761 133.169 406.761 133.528V147.145C406.761 147.505 406.62 147.849 406.368 148.104C406.116 148.358 405.774 148.5 405.417 148.5Z" fill="white"/>
<path d="M552.2 136.545V132.173H528.238V171.132H552.2V160.821H538.761C538.405 160.821 538.063 160.678 537.811 160.424C537.559 160.17 537.417 159.826 537.417 159.466V145.917H567.064V171.896C567.088 173.759 566.73 175.607 566.013 177.324C565.296 179.041 564.236 180.591 562.898 181.877C561.606 183.212 560.058 184.269 558.348 184.983C556.639 185.697 554.803 186.054 552.953 186.032H527.571C523.857 186.018 520.299 184.524 517.673 181.875C515.048 179.227 513.567 175.64 513.554 171.896V131.428C513.567 127.684 515.048 124.096 517.673 121.448C520.299 118.8 523.857 117.306 527.571 117.292H552.953C554.803 117.27 556.639 117.626 558.348 118.341C560.058 119.055 561.606 120.112 562.898 121.447C564.236 122.732 565.296 124.282 566.013 126C566.73 127.717 567.088 129.565 567.064 131.428V137.918H553.54C553.362 137.918 553.187 137.882 553.023 137.812C552.859 137.743 552.711 137.641 552.586 137.514C552.462 137.386 552.363 137.235 552.297 137.068C552.231 136.902 552.198 136.724 552.2 136.545Z" fill="#FFAA00"/>
<path d="M616.131 136.545V132.173H592.169V171.132H616.131V160.821H602.692C602.335 160.821 601.994 160.678 601.742 160.424C601.49 160.17 601.348 159.826 601.348 159.466V145.917H630.995V171.896C631.019 173.759 630.661 175.607 629.944 177.324C629.227 179.041 628.167 180.591 626.829 181.877C625.536 183.212 623.989 184.269 622.279 184.983C620.57 185.697 618.734 186.054 616.884 186.032H591.502C587.788 186.018 584.23 184.524 581.604 181.875C578.978 179.227 577.497 175.64 577.484 171.896V131.428C577.497 127.684 578.978 124.096 581.604 121.448C584.23 118.8 587.788 117.306 591.502 117.292H616.884C618.734 117.27 620.57 117.626 622.279 118.341C623.989 119.055 625.536 120.112 626.829 121.447C628.167 122.732 629.227 124.282 629.944 126C630.661 127.717 631.019 129.565 630.995 131.428V137.918H617.471C617.293 137.918 617.117 137.882 616.954 137.812C616.79 137.743 616.641 137.641 616.517 137.514C616.392 137.386 616.294 137.235 616.228 137.068C616.162 136.902 616.129 136.724 616.131 136.545Z" fill="#FFAA00"/>
<path d="M476.668 62.8597V117.96H458.323V62.8778C459.951 63.2826 461.607 63.5574 463.278 63.6998C463.726 63.7359 464.174 63.763 464.59 63.7856C464.59 63.7856 467.323 63.885 467.471 63.885C467.619 63.885 470.351 63.7856 470.351 63.7856C470.759 63.7856 471.198 63.7359 471.664 63.6998C473.352 63.5565 475.025 63.2755 476.668 62.8597Z" fill="#CCCCCC"/>
<path d="M481.192 176.751C481.192 176.751 481.761 165.08 481.761 161.033C481.761 156.987 467.489 131.74 467.489 131.74C467.489 131.74 453.221 156.991 453.221 161.033C453.221 165.076 453.794 176.751 453.794 176.751H433.295C433.295 176.751 434.137 162.885 434.899 156.165C435.66 149.444 451.277 117.942 451.277 117.942H483.688C483.688 117.942 499.308 149.449 500.066 156.165C500.823 162.881 501.669 176.751 501.669 176.751H481.192Z" fill="#0C0C0C"/>
<path d="M501.678 177.342H481.192C481.113 177.342 481.035 177.326 480.962 177.294C480.89 177.262 480.825 177.216 480.771 177.157C480.713 177.098 480.669 177.027 480.641 176.949C480.613 176.871 480.602 176.788 480.61 176.706C480.61 176.588 481.174 165.003 481.174 161.015C481.174 157.953 471.74 140.493 467.488 132.914C463.242 140.493 453.803 157.953 453.803 161.015C453.803 165.003 454.367 176.588 454.376 176.706C454.382 176.788 454.371 176.871 454.343 176.949C454.316 177.027 454.272 177.098 454.215 177.157C454.161 177.215 454.095 177.261 454.023 177.293C453.951 177.325 453.873 177.342 453.794 177.342H433.294C433.215 177.342 433.136 177.325 433.063 177.293C432.99 177.261 432.924 177.215 432.869 177.157C432.815 177.098 432.772 177.03 432.744 176.954C432.716 176.879 432.704 176.799 432.708 176.719C432.708 176.579 433.563 162.754 434.316 156.097C435.082 149.358 450.116 118.967 450.752 117.676C450.801 117.578 450.876 117.496 450.969 117.439C451.061 117.382 451.168 117.351 451.276 117.351H483.687C483.795 117.351 483.901 117.381 483.993 117.439C484.085 117.496 484.159 117.578 484.207 117.676C484.847 118.967 499.886 149.358 500.648 156.097C501.4 162.754 502.242 176.579 502.251 176.719C502.258 176.801 502.248 176.884 502.221 176.962C502.194 177.04 502.151 177.111 502.094 177.171C501.983 177.281 501.834 177.343 501.678 177.342ZM481.806 176.164H501.069C500.898 173.386 500.173 162.05 499.51 156.233C498.811 150.059 485 121.908 483.347 118.529H451.661C450.004 121.89 436.202 150.059 435.499 156.233C434.84 162.05 434.11 173.395 433.935 176.164H453.198C453.082 173.698 452.652 164.511 452.652 161.033C452.652 156.969 465.531 134.048 466.987 131.446C467.038 131.357 467.112 131.282 467.201 131.231C467.29 131.179 467.39 131.152 467.493 131.153C467.596 131.153 467.697 131.18 467.787 131.232C467.876 131.283 467.951 131.357 468.004 131.446C469.468 134.048 482.339 156.951 482.339 161.033C482.343 164.511 481.922 173.698 481.806 176.164Z" fill="black"/>
<path d="M481.004 176.358C480.334 179.616 480.072 182.947 480.225 186.271C480.233 186.463 480.299 186.648 480.412 186.803C480.525 186.957 480.682 187.074 480.861 187.138C485.129 188.575 489.511 189.642 493.96 190.327C500.16 191.181 509.24 191.795 509.24 188.471C509.24 185.147 509.782 181.109 508.653 179.971C507.524 178.833 505.298 177.943 504.245 175.518C503.193 173.092 502.807 172.433 501.49 170.87C501.49 170.87 495.03 177.948 481.004 176.358Z" fill="#CCCCCC"/>
<path d="M501.36 172.577C502.023 173.481 502.404 174.221 503.152 175.992C504.012 177.97 505.491 179.04 506.673 179.903C507.072 180.177 507.451 180.479 507.807 180.806C508.295 181.299 508.183 184.158 508.116 185.865C508.084 186.727 508.049 187.622 508.049 188.475C508.049 188.927 506.866 189.83 502.386 189.83C499.613 189.786 496.844 189.565 494.099 189.166C489.776 188.494 485.516 187.462 481.363 186.082C481.256 183.256 481.443 180.427 481.918 177.64C482.953 177.726 483.974 177.771 484.973 177.771C493.96 177.771 499.277 174.285 501.338 172.582L501.36 172.577ZM501.468 170.875C501.468 170.875 496.258 176.593 484.996 176.593C483.662 176.59 482.33 176.513 481.004 176.362C480.334 179.621 480.072 182.951 480.225 186.276C480.233 186.468 480.299 186.653 480.412 186.807C480.525 186.962 480.682 187.078 480.861 187.143C485.129 188.58 489.511 189.647 493.96 190.332C496.759 190.738 499.581 190.963 502.409 191.004C506.185 191.004 509.24 190.404 509.24 188.475C509.24 185.147 509.782 181.113 508.653 179.975C507.524 178.837 505.298 177.947 504.245 175.522C503.193 173.097 502.807 172.437 501.49 170.875H501.468Z" fill="black"/>
<path d="M503.529 179.171C503.529 179.171 499.282 182.505 492.526 182.098L503.529 179.171Z" fill="#CCCCCC"/>
<path d="M493.681 182.721C493.292 182.721 492.897 182.721 492.49 182.685C492.336 182.675 492.192 182.603 492.09 182.487C491.987 182.37 491.935 182.217 491.943 182.062C491.946 181.984 491.964 181.908 491.997 181.837C492.03 181.767 492.077 181.704 492.135 181.653C492.193 181.601 492.26 181.562 492.334 181.538C492.407 181.513 492.485 181.504 492.562 181.511C498.986 181.899 503.129 178.738 503.17 178.706C503.292 178.61 503.447 178.568 503.601 178.587C503.755 178.606 503.894 178.687 503.989 178.81C504.084 178.933 504.127 179.09 504.108 179.245C504.088 179.4 504.009 179.541 503.886 179.637C503.716 179.754 499.881 182.721 493.681 182.721Z" fill="black"/>
<path d="M453.929 176.358C454.599 179.616 454.861 182.947 454.708 186.271C454.699 186.463 454.634 186.648 454.52 186.802C454.407 186.956 454.251 187.073 454.072 187.138C449.802 188.576 445.419 189.643 440.969 190.327C434.769 191.181 425.693 191.795 425.693 188.471C425.693 185.147 425.146 181.109 426.275 179.971C427.404 178.833 429.635 177.943 430.688 175.518C431.74 173.092 432.126 172.433 433.438 170.87C433.438 170.87 439.903 177.948 453.929 176.358Z" fill="#CCCCCC"/>
<path d="M433.568 172.577C435.633 174.28 440.951 177.767 449.937 177.767C450.931 177.767 451.957 177.722 452.988 177.636C453.468 180.422 453.655 183.251 453.548 186.077C449.394 187.458 445.134 188.49 440.812 189.162C438.064 189.56 435.295 189.782 432.52 189.826C428.04 189.826 426.862 188.922 426.862 188.471C426.862 187.617 426.826 186.723 426.795 185.86C426.727 184.153 426.615 181.294 427.104 180.802C427.458 180.474 427.835 180.172 428.233 179.899C429.42 179.04 430.898 177.966 431.758 175.987C432.211 174.778 432.813 173.631 433.55 172.573L433.568 172.577ZM433.42 170.866C432.108 172.428 431.722 173.092 430.67 175.513C429.617 177.934 427.39 178.828 426.257 179.966C425.124 181.104 425.679 185.142 425.679 188.471C425.679 190.399 428.734 191 432.506 191C435.334 190.959 438.156 190.734 440.955 190.327C445.405 189.643 449.789 188.576 454.058 187.138C454.237 187.073 454.394 186.956 454.507 186.802C454.62 186.648 454.685 186.463 454.694 186.271C454.847 182.947 454.585 179.616 453.915 176.358C452.59 176.509 451.257 176.586 449.924 176.588C438.661 176.588 433.425 170.87 433.425 170.87L433.42 170.866Z" fill="black"/>
<path d="M431.404 179.171C431.404 179.171 435.651 182.505 442.407 182.098L431.404 179.171Z" fill="#CCCCCC"/>
<path d="M441.251 182.721C435.051 182.721 431.216 179.768 431.046 179.637C430.986 179.589 430.935 179.53 430.897 179.463C430.859 179.396 430.834 179.322 430.825 179.245C430.815 179.168 430.821 179.09 430.841 179.016C430.861 178.941 430.896 178.871 430.943 178.81C430.99 178.749 431.049 178.698 431.115 178.66C431.182 178.621 431.256 178.597 431.332 178.587C431.408 178.577 431.485 178.583 431.559 178.603C431.633 178.624 431.702 178.659 431.763 178.706C434.893 180.801 438.624 181.788 442.371 181.511C442.448 181.505 442.525 181.514 442.598 181.539C442.671 181.564 442.738 181.603 442.796 181.654C442.854 181.706 442.901 181.768 442.934 181.838C442.967 181.908 442.986 181.984 442.989 182.062C442.998 182.217 442.945 182.37 442.843 182.487C442.741 182.603 442.597 182.675 442.443 182.685C442.035 182.708 441.641 182.721 441.251 182.721Z" fill="black"/>
<path d="M476.3 62.6384C476.3 62.6384 475.91 68.5775 467.157 68.5775C458.403 68.5775 458.014 62.6384 458.014 62.6384" fill="#FDC997"/>
<path d="M467.153 69.1692C457.956 69.1692 457.432 62.7423 457.428 62.6746C457.427 62.5236 457.483 62.378 457.585 62.2675C457.687 62.1571 457.827 62.0901 457.976 62.0803C458.126 62.0704 458.273 62.1186 458.389 62.2148C458.504 62.311 458.579 62.448 458.597 62.5978C458.597 62.8146 459.09 67.9904 467.153 67.9904C475.217 67.9904 475.71 62.652 475.714 62.5978C475.724 62.4421 475.795 62.2968 475.912 62.1939C476.028 62.091 476.18 62.0389 476.334 62.049C476.489 62.0592 476.633 62.1309 476.735 62.2482C476.837 62.3655 476.889 62.5189 476.879 62.6746C476.874 62.7423 476.35 69.1692 467.153 69.1692Z" fill="black"/>
<path d="M486.957 48.2987V48.7007C486.957 50.9002 486.317 58.6369 478.961 62.0965L478.773 62.1823C478.132 62.4487 475.816 63.3159 471.663 63.6998C471.215 63.7359 470.767 63.763 470.351 63.7856C470.351 63.7856 467.618 63.885 467.47 63.885C467.323 63.885 464.59 63.7856 464.59 63.7856C464.182 63.7856 463.739 63.7359 463.277 63.6998C459.125 63.3159 456.809 62.4487 456.168 62.1823L455.98 62.0965C448.624 58.6369 447.983 50.9002 447.983 48.7007V48.2987L448.548 47.7161V38.1232L450.698 36.6192C450.634 35.0067 450.799 33.3931 451.186 31.8273C451.599 30.2782 451.921 29.2846 453.207 28.8916C454.73 32.5319 458.233 36.7367 458.372 36.9083C457.287 34.356 456.722 31.6098 456.71 28.8329C460.742 29.3704 467.461 31.8273 467.461 31.8273C467.461 31.8273 474.92 29.1174 478.818 28.7606C479.571 28.6759 480.331 28.6759 481.084 28.7606C480.401 29.8151 479.623 30.8039 478.759 31.7144C479.559 31.7301 480.353 31.5825 481.094 31.2806C481.836 30.9787 482.509 30.5286 483.073 29.9575C483.376 30.5493 483.602 31.1776 483.745 31.8273C484.13 33.3936 484.293 35.0069 484.229 36.6192L486.379 38.1232V47.7161L486.957 48.2987Z" fill="#FDC997"/>
<path d="M485.788 25.292V48.7142C485.788 50.2001 485.434 57.7471 478.468 61.0396H478.441L478.316 61.0983C477.715 61.3467 475.494 62.1642 471.596 62.5255C471.148 62.5616 470.7 62.5887 470.319 62.6113C469.298 62.6474 467.632 62.7061 467.497 62.7061C467.363 62.7061 465.705 62.6474 464.666 62.6113C464.267 62.6113 463.837 62.5616 463.407 62.5255C459.465 62.1642 457.248 61.3467 456.643 61.0983L456.522 61.0396H456.495C449.529 57.7652 449.175 50.2001 449.175 48.7142V25.292H485.81H485.788ZM486.98 24.1177H448.006V48.7142C448.006 50.9137 448.646 58.6504 456.002 62.11L456.19 62.1958C456.831 62.4623 459.147 63.3294 463.3 63.7133C463.748 63.7494 464.196 63.7765 464.612 63.7991C464.612 63.7991 467.345 63.8985 467.493 63.8985C467.641 63.8985 470.373 63.7991 470.373 63.7991C470.781 63.7991 471.22 63.7494 471.686 63.7133C475.838 63.3294 478.154 62.4623 478.795 62.1958L478.983 62.11C486.339 58.6504 486.98 50.9137 486.98 48.7142V24.1042V24.1177Z" fill="black"/>
<path d="M490.21 23.7293C493.096 23.2646 496.049 23.5015 498.825 24.4204C498.825 24.4204 490.52 24.9623 488.822 28.0335C488.28 30.3459 487.926 32.3738 487.926 32.3738V49.2833L486.403 47.7116V38.1232L484.257 36.6193C484.321 35.0052 484.156 33.3901 483.769 31.8228C483.627 31.1746 483.403 30.5476 483.101 29.9575C482.535 30.5279 481.861 30.9774 481.119 31.2793C480.377 31.5812 479.583 31.7291 478.783 31.7144C479.645 30.8017 480.424 29.8115 481.108 28.7561C480.354 28.6714 479.594 28.6714 478.841 28.7561C474.944 29.1084 467.485 31.8228 467.485 31.8228C467.485 31.8228 460.738 29.3659 456.733 28.8239C456.741 31.6013 457.301 34.3489 458.382 36.9038C458.239 36.7367 454.735 32.5319 453.217 28.8916C451.927 29.2846 451.608 30.2782 451.196 31.8228C450.808 33.3902 450.642 35.005 450.704 36.6193L448.553 38.1232V47.7116L447.039 49.2833V32.3738C447.039 32.3738 445.991 25.5992 444.898 24.5694C443.805 23.5397 440.718 23.8784 436.763 26.5612C436.884 26.4031 439.482 22.948 442.407 20.8027C440.143 21.0159 437.898 21.3933 435.687 21.9318C437.569 19.6465 440.584 18.1606 443.151 17.2437C440.718 16.3947 437.282 16.1508 433.842 19.1045C433.972 18.9193 437.452 14.1364 442.895 12.3299C441.196 11.8617 439.461 11.5384 437.708 11.3633C439.67 10.2704 443.173 9.60194 445.731 9.58387C443.633 8.14839 441.292 7.11212 438.823 6.52625C438.823 6.52625 445.686 6.86498 450.515 8.99222C449.705 6.70239 448.428 3.92026 446.654 2.28532C446.855 2.40274 451.774 5.30229 454.614 9.7013C454.85 7.25796 454.911 4.80074 454.798 2.34855C456.361 4.0731 457.646 6.03456 458.606 8.1612C459.192 6.03891 459.268 3.8066 458.83 1.6485C459.544 3.08481 460.088 4.60066 460.452 6.16493C460.931 3.71703 461.28 1.6485 461.28 1.6485C462.131 2.97181 462.763 5.08099 463.193 6.94628C464.062 4.96356 464.671 2.99891 464.465 1.6756C464.519 1.95562 464.981 4.29965 465.429 7.00951C466.406 4.51077 467.707 2.15371 469.299 0C469.299 0 469.039 2.59695 468.923 5.37907C469.689 3.91123 470.661 2.66921 471.888 1.99175C471.601 3.7833 471.469 5.59677 471.494 7.41147C472.347 5.52911 473.621 3.87182 475.217 2.56985C475.217 2.56985 474.97 4.57966 474.881 6.8424C475.929 5.48747 477.466 4.08286 479.231 4.05124C478.448 4.79038 477.909 5.75339 477.685 6.81078C480.526 5.94263 483.479 5.51023 486.447 5.52812C484.673 6.74448 482.975 8.07032 481.363 9.49806C484.629 8.29655 488.121 7.84898 491.581 8.1883C491.581 8.1883 486.6 10.0897 483.58 12.2124C486.029 11.7108 488.564 11.8413 490.95 12.5918C489.674 13.2731 488.448 14.0444 487.281 14.8997C489.96 14.3948 492.709 14.3948 495.389 14.8997C493.834 15.584 492.336 16.3936 490.909 17.3205C493.336 17.5579 495.718 18.1403 497.983 19.0503C497.983 19.0503 494.274 19.502 492.092 20.7756C494.708 20.753 497.835 20.9698 500.156 21.8912C500.147 21.9002 493.965 21.6789 490.21 23.7293Z" fill="black"/>
<path d="M463.35 46.0721C464.567 46.0721 465.554 44.1714 465.554 41.8267C465.554 39.482 464.567 37.5812 463.35 37.5812C462.132 37.5812 461.146 39.482 461.146 41.8267C461.146 44.1714 462.132 46.0721 463.35 46.0721Z" fill="black"/>
<path d="M472.547 46.0676C473.584 46.0676 474.424 44.4499 474.424 42.4545C474.424 40.459 473.584 38.8413 472.547 38.8413C471.51 38.8413 470.67 40.459 470.67 42.4545C470.67 44.4499 471.51 46.0676 472.547 46.0676Z" fill="black"/>
<path d="M459.645 35.9869C460.133 35.5534 460.703 35.2231 461.32 35.0159C461.946 34.7867 462.612 34.6868 463.278 34.7223C463.951 34.7551 464.609 34.9387 465.204 35.2598C465.492 35.4196 465.761 35.612 466.006 35.8334C466.248 36.0592 466.454 36.285 466.687 36.5199C466.381 36.4407 466.081 36.338 465.791 36.2128C465.504 36.0953 465.222 35.996 464.944 35.9102C464.39 35.7483 463.818 35.6528 463.242 35.6256C462.033 35.6077 460.826 35.7289 459.645 35.9869Z" fill="black"/>
<path d="M470.069 37.4864C470.337 37.0663 470.697 36.7139 471.122 36.4566C471.551 36.1818 472.034 36.0045 472.538 35.9372C473.048 35.863 473.569 35.9126 474.056 36.0818C474.518 36.2641 474.939 36.5357 475.297 36.8812C474.782 36.8812 474.33 36.7863 473.904 36.7728C473.487 36.7518 473.068 36.7714 472.654 36.8315C471.779 36.9906 470.915 37.2094 470.069 37.4864Z" fill="black"/>
<path d="M476.605 51.9706C476.023 56.9387 472.224 60.4841 467.959 60.2221C467.735 60.2221 467.511 60.186 467.283 60.1499C463.645 59.5808 460.877 56.3696 460.241 52.4223C460.084 51.4271 460.064 50.4149 460.182 49.4143L476.605 51.9706Z" fill="#BA314F"/>
<path d="M468.393 60.7867C468.236 60.7867 468.08 60.7867 467.945 60.7867C467.704 60.7734 467.463 60.7478 467.224 60.7099C463.43 60.1182 460.415 56.8303 459.725 52.5306C459.558 51.4848 459.537 50.4208 459.662 49.3691L459.725 48.7775L477.223 51.4873L477.165 52.0157C476.56 57.0335 472.766 60.7867 468.393 60.7867ZM460.67 50.0466C460.623 50.8115 460.659 51.5794 460.778 52.3364C461.391 56.1663 464.039 59.1111 467.367 59.6079C467.565 59.6395 467.775 59.6621 467.99 59.6756C471.829 59.9105 475.252 56.7625 475.986 52.4493L460.67 50.0466Z" fill="black"/>
<path d="M467.959 60.2221C467.735 60.2221 467.511 60.186 467.282 60.1499C463.645 59.5808 460.876 56.3696 460.24 52.4222C461.485 52.52 462.69 52.9094 463.76 53.5594C464.829 54.2094 465.733 55.1021 466.4 56.1664C467.203 57.3894 467.735 58.7728 467.959 60.2221Z" fill="#FF557A"/>
<path d="M468.6 60.8138L467.924 60.7686C467.682 60.7554 467.441 60.7298 467.202 60.6918C463.408 60.1002 460.393 56.8122 459.703 52.5125L459.596 51.8351L460.277 51.8757C461.605 51.9784 462.891 52.3924 464.033 53.0847C465.175 53.7771 466.14 54.7287 466.853 55.8638C467.703 57.1503 468.264 58.6084 468.497 60.1363L468.6 60.8138ZM460.922 53.0545C461.724 56.4961 464.205 59.0704 467.283 59.5943C467.027 58.4802 466.572 57.4226 465.939 56.4735C465.379 55.5879 464.645 54.8276 463.782 54.2396C462.919 53.6515 461.945 53.2482 460.922 53.0545Z" fill="black"/>
<path d="M467.466 129.59C467.312 129.59 467.164 129.528 467.054 129.418C466.945 129.308 466.884 129.159 466.884 129.003V119.835C466.884 119.757 466.899 119.681 466.928 119.61C466.957 119.539 467 119.474 467.054 119.419C467.108 119.365 467.173 119.322 467.243 119.292C467.314 119.263 467.39 119.247 467.466 119.247C467.543 119.247 467.618 119.263 467.689 119.292C467.76 119.322 467.824 119.365 467.878 119.419C467.932 119.474 467.975 119.539 468.004 119.61C468.033 119.681 468.048 119.757 468.048 119.835V129.003C468.048 129.08 468.033 129.156 468.004 129.228C467.975 129.299 467.932 129.364 467.878 129.418C467.824 129.473 467.76 129.516 467.689 129.545C467.618 129.575 467.543 129.59 467.466 129.59Z" fill="black"/>
<path d="M424.273 113.362L421.504 119.853L420.608 122.002L419.779 123.944C419.376 124.888 417.683 128.1 413.884 128.213H413.79C412.651 128.153 411.527 127.926 410.453 127.54L409.87 127.332L408.616 126.84L407.393 126.257L406.846 125.977C405.829 125.457 404.892 124.791 404.064 123.999L403.997 123.926C401.471 121.068 402.613 117.603 403.016 116.673L403.845 114.735L404.741 112.581L407.505 106.096L424.273 113.362Z" fill="#FDC997"/>
<path d="M408.123 107.649L422.741 113.972L420.434 119.392L419.538 121.542L418.714 123.484C418.467 124.062 417.074 126.943 413.853 127.043H413.795C412.784 126.983 411.787 126.778 410.834 126.433C410.641 126.37 410.457 126.302 410.287 126.239L409.078 125.765L407.908 125.209L407.407 124.952C406.499 124.484 405.659 123.893 404.911 123.195V123.168C402.766 120.747 403.886 117.748 404.132 117.165L404.956 115.228L405.852 113.073L408.159 107.654L408.123 107.649ZM407.546 106.109L404.777 112.595L403.881 114.749L403.052 116.687C402.649 117.635 401.507 121.081 404.033 123.94L404.101 124.012C404.929 124.803 405.866 125.469 406.882 125.99L407.429 126.27L408.652 126.853L409.906 127.345L410.489 127.553C411.563 127.94 412.687 128.166 413.826 128.226H413.92C417.719 128.113 419.412 124.902 419.816 123.958C420.34 122.725 420.644 122.016 420.644 122.016L421.54 119.866L424.273 113.363L407.51 106.1L407.546 106.109Z" fill="black"/>
<path d="M510.718 113.363L513.486 119.853L514.382 122.002L515.206 123.945C515.61 124.888 517.303 128.1 521.102 128.213H521.2C522.339 128.152 523.463 127.926 524.538 127.54L525.129 127.363L526.388 126.871L527.606 126.289L528.157 126.009C529.174 125.49 530.11 124.823 530.935 124.03L531.002 123.958C533.533 121.099 532.386 117.635 531.983 116.705L531.159 114.767L530.263 112.613L527.494 106.127L510.718 113.363Z" fill="#FDC997"/>
<path d="M526.872 107.649L529.174 113.069L530.07 115.223L530.899 117.161C531.145 117.739 532.243 120.742 530.115 123.163L530.093 123.19C529.352 123.887 528.518 124.475 527.615 124.938L527.096 125.205C526.984 125.259 526.079 125.692 525.927 125.76L524.717 126.234L524.188 126.424C523.229 126.77 522.226 126.977 521.209 127.038H521.151C517.93 126.939 516.541 124.057 516.295 123.479L515.466 121.537L514.57 119.387L512.268 113.968L526.885 107.645L526.872 107.649ZM527.494 106.1L510.718 113.363L513.486 119.853C513.486 119.853 513.894 120.815 514.382 122.002L515.206 123.945C515.61 124.888 517.303 128.1 521.102 128.213H521.2C522.339 128.152 523.463 127.926 524.538 127.54L525.129 127.363L526.388 126.871L527.606 126.289L528.157 126.009C529.174 125.49 530.11 124.823 530.935 124.03L531.002 123.958C533.533 121.099 532.386 117.635 531.983 116.705L531.159 114.767C530.648 113.575 530.263 112.613 530.263 112.613L527.494 106.127V106.1Z" fill="black"/>
<path d="M440.462 135.669C440.462 135.669 449.923 122.282 449.923 109.212C449.923 96.1413 437.873 79.0828 437.873 79.0828C437.873 79.0828 425.231 112.355 423.932 124.577C423.932 124.577 422.884 117.987 402.389 111.398C402.389 111.398 421.705 82.2217 426.158 67.9136C427.198 64.5669 448.185 59.4092 458.323 62.783V135.669H440.462Z" fill="#0C0C0C"/>
<path d="M458.323 136.256H440.463C440.355 136.257 440.25 136.227 440.158 136.171C440.066 136.115 439.992 136.034 439.943 135.938C439.893 135.842 439.872 135.733 439.88 135.625C439.888 135.517 439.925 135.414 439.988 135.326C440.082 135.195 449.342 121.939 449.342 109.212C449.342 98.1963 440.481 84.0554 438.021 80.3474C435.867 86.1058 425.653 113.85 424.51 124.636C424.496 124.778 424.431 124.91 424.327 125.007C424.223 125.105 424.088 125.16 423.946 125.164C423.807 125.165 423.672 125.115 423.566 125.024C423.46 124.932 423.389 124.806 423.368 124.667C423.368 124.613 421.935 118.294 402.224 111.958C402.137 111.931 402.059 111.884 401.994 111.82C401.929 111.757 401.881 111.678 401.852 111.592C401.822 111.506 401.812 111.415 401.823 111.325C401.834 111.235 401.865 111.148 401.915 111.073C402.112 110.779 421.24 81.8017 425.612 67.7149C425.845 66.9787 426.665 66.2516 428.121 65.4973C434.326 62.2862 450.175 59.4227 458.521 62.2003C458.637 62.2398 458.739 62.315 458.811 62.4153C458.883 62.5157 458.923 62.6363 458.924 62.7604V135.669C458.923 135.748 458.907 135.825 458.877 135.897C458.846 135.97 458.801 136.035 458.746 136.089C458.69 136.144 458.624 136.187 458.551 136.216C458.479 136.244 458.401 136.258 458.323 136.256ZM441.565 135.078H457.741V63.2301C449.324 60.6918 433.945 63.8443 428.623 66.5858C427.015 67.4168 426.741 67.9633 426.697 68.1078C422.665 81.1468 406.152 106.701 403.281 111.095C417.052 115.612 421.899 120.169 423.592 122.635C425.765 109.343 436.816 80.1803 437.309 78.8931C437.346 78.7932 437.41 78.7054 437.493 78.6392C437.576 78.573 437.676 78.5309 437.781 78.5174C437.886 78.504 437.992 78.5196 438.089 78.5627C438.186 78.6058 438.269 78.6748 438.33 78.7621C438.828 79.4621 450.493 96.1233 450.493 109.23C450.511 120.494 443.711 131.794 441.565 135.078Z" fill="black"/>
<path d="M494.529 135.669C494.529 135.669 485.068 122.282 485.068 109.212C485.068 96.1413 497.123 79.0828 497.123 79.0828C497.123 79.0828 509.769 112.355 511.059 124.577C511.059 124.577 512.107 117.987 532.602 111.398C532.602 111.398 513.286 82.2217 508.86 67.9136C507.816 64.5669 486.833 59.4092 476.69 62.783V135.669H494.529Z" fill="#0C0C0C"/>
<path d="M494.528 136.256H476.667C476.513 136.256 476.365 136.194 476.256 136.084C476.146 135.974 476.085 135.825 476.085 135.669V62.7784C476.085 62.6548 476.124 62.5343 476.195 62.4338C476.267 62.3334 476.367 62.258 476.484 62.2184C484.829 59.4453 500.674 62.3042 506.883 65.5154C508.344 66.2696 509.163 66.9968 509.392 67.733C513.769 81.7971 532.897 110.775 533.09 111.091C533.139 111.167 533.171 111.253 533.182 111.343C533.192 111.433 533.182 111.525 533.152 111.61C533.124 111.696 533.075 111.775 533.01 111.838C532.946 111.902 532.867 111.949 532.781 111.976C513.07 118.299 511.645 124.622 511.636 124.694C511.611 124.834 511.537 124.961 511.426 125.05C511.316 125.139 511.177 125.184 511.036 125.177C510.896 125.174 510.762 125.118 510.66 125.022C510.557 124.925 510.494 124.794 510.48 124.654C509.343 113.868 499.124 86.1239 496.97 80.3654C494.51 84.0734 485.649 98.2144 485.649 109.23C485.649 121.957 494.913 135.213 495.003 135.344C495.067 135.431 495.105 135.534 495.113 135.642C495.121 135.75 495.098 135.858 495.048 135.954C494.997 136.047 494.922 136.125 494.83 136.178C494.738 136.232 494.634 136.259 494.528 136.256ZM477.25 135.077H493.426C491.28 131.794 484.467 120.494 484.467 109.212C484.467 96.1142 496.114 79.4441 496.625 78.744C496.686 78.657 496.77 78.5884 496.867 78.5454C496.964 78.5025 497.07 78.4868 497.176 78.5001C497.276 78.5171 497.371 78.5607 497.45 78.6265C497.529 78.6924 497.588 78.7781 497.624 78.875C498.116 80.1712 509.168 109.325 511.34 122.617C513.034 120.151 517.881 115.603 531.652 111.077C528.78 106.683 512.295 81.1287 508.236 68.0897C508.191 67.9452 507.918 67.3987 506.31 66.5677C501.006 63.8262 485.627 60.6964 477.191 63.212L477.25 135.077Z" fill="black"/>
<path d="M497.122 79.6744C497.003 79.6751 496.887 79.6386 496.789 79.5698C496.691 79.5011 496.616 79.4035 496.576 79.2905C496.155 78.1622 495.669 77.0597 495.12 75.989C495.084 75.9208 495.061 75.8461 495.054 75.7691C495.046 75.6921 495.054 75.6144 495.076 75.5404C495.098 75.4664 495.135 75.3975 495.183 75.3377C495.232 75.2779 495.292 75.2283 495.36 75.1919C495.427 75.1554 495.501 75.1327 495.578 75.1251C495.654 75.1175 495.731 75.1251 495.804 75.1476C495.878 75.17 495.946 75.2068 496.006 75.2559C496.065 75.3049 496.114 75.3653 496.15 75.4335C496.723 76.549 497.229 77.6982 497.664 78.875C497.697 78.9639 497.709 79.0596 497.698 79.1539C497.686 79.2481 497.653 79.3383 497.599 79.4167C497.546 79.4951 497.475 79.5595 497.392 79.6043C497.309 79.6492 497.217 79.6732 497.122 79.6744Z" fill="black"/>
<path d="M437.873 79.6744C437.802 79.6744 437.732 79.6606 437.667 79.6338C437.595 79.6072 437.528 79.5663 437.472 79.5136C437.416 79.4608 437.37 79.3972 437.338 79.3266C437.307 79.2559 437.289 79.1795 437.287 79.102C437.285 79.0245 437.299 78.9473 437.326 78.875C437.764 77.6991 438.27 76.55 438.841 75.4335C438.877 75.3653 438.926 75.3049 438.985 75.2559C439.045 75.2068 439.113 75.17 439.186 75.1476C439.26 75.1251 439.337 75.1175 439.413 75.1251C439.49 75.1327 439.564 75.1554 439.631 75.1919C439.699 75.2283 439.759 75.2779 439.807 75.3377C439.856 75.3975 439.893 75.4664 439.915 75.5404C439.937 75.6144 439.945 75.6921 439.937 75.7691C439.93 75.8461 439.907 75.9208 439.871 75.989C439.323 77.0599 438.839 78.1623 438.42 79.2905C438.378 79.4028 438.303 79.4997 438.206 79.5682C438.108 79.6368 437.992 79.6738 437.873 79.6744Z" fill="black"/>
<path d="M467.497 83.554C467.373 83.5547 467.252 83.5151 467.152 83.4411C467.027 83.3481 466.944 83.2093 466.919 83.0547C466.895 82.9 466.932 82.742 467.022 82.6146C473.554 73.6404 476.045 62.8507 476.067 62.7423C476.109 62.5977 476.204 62.4747 476.333 62.3983C476.462 62.322 476.615 62.2981 476.76 62.3315C476.906 62.3649 477.034 62.4531 477.117 62.5781C477.201 62.7032 477.234 62.8556 477.209 63.0042C477.183 63.1126 474.642 74.1327 467.968 83.3282C467.911 83.3993 467.84 83.4566 467.758 83.4957C467.677 83.5348 467.588 83.5548 467.497 83.554Z" fill="black"/>
<path d="M469.473 82.2217L467.717 80.9255C467.317 80.632 466.818 80.5104 466.329 80.5874C465.84 80.6645 465.402 80.9339 465.11 81.3365L460.63 87.4833C460.485 87.6829 460.38 87.9093 460.322 88.1497C460.264 88.39 460.253 88.6396 460.29 88.8841C460.328 89.1286 460.413 89.3633 460.54 89.5748C460.668 89.7862 460.835 89.9703 461.033 90.1164L462.789 91.4081C462.987 91.5543 463.211 91.6597 463.449 91.7184C463.687 91.7771 463.934 91.7878 464.176 91.7501C464.419 91.7123 464.651 91.6268 464.86 91.4984C465.07 91.3699 465.252 91.2011 465.396 91.0016L469.876 84.8503C470.021 84.6511 470.126 84.425 470.184 84.185C470.242 83.945 470.253 83.6958 470.215 83.4517C470.178 83.2075 470.093 82.9732 469.966 82.7621C469.838 82.5511 469.671 82.3674 469.473 82.2217ZM466.996 83.7844C466.873 83.6946 466.78 83.5702 466.727 83.427C466.675 83.2837 466.666 83.128 466.701 82.9795C466.736 82.831 466.815 82.6964 466.926 82.5927C467.037 82.489 467.176 82.4209 467.326 82.3969C467.475 82.3729 467.629 82.3942 467.766 82.458C467.904 82.5218 468.02 82.6253 468.099 82.7555C468.178 82.8856 468.217 83.0365 468.211 83.1891C468.206 83.3417 468.155 83.4891 468.066 83.6128C468.008 83.6955 467.933 83.7656 467.847 83.819C467.762 83.8725 467.666 83.9083 467.567 83.9242C467.467 83.9402 467.365 83.936 467.267 83.912C467.169 83.888 467.077 83.8446 466.996 83.7844Z" fill="#686868"/>
<path d="M466.62 80.8893C466.942 80.8927 467.255 80.9969 467.516 81.1874L469.272 82.4836C469.436 82.6043 469.575 82.7565 469.68 82.9313C469.786 83.1062 469.856 83.3004 469.887 83.5026C469.917 83.7049 469.908 83.9114 469.86 84.1101C469.811 84.3088 469.724 84.4959 469.604 84.6606L465.124 90.8119C464.979 91.009 464.791 91.1692 464.574 91.2798C464.357 91.3904 464.117 91.4482 463.874 91.4488C463.551 91.4459 463.238 91.34 462.978 91.1462L461.222 89.8545C460.893 89.6092 460.673 89.2427 460.611 88.8349C460.549 88.4271 460.65 88.011 460.891 87.6775L465.37 81.5261C465.515 81.3291 465.703 81.1689 465.92 81.0583C466.137 80.9477 466.377 80.8899 466.62 80.8893ZM467.444 84.2541C467.602 84.2554 467.758 84.2221 467.901 84.1565C468.045 84.0909 468.172 83.9945 468.275 83.8741C468.378 83.7538 468.453 83.6123 468.496 83.4595C468.539 83.3067 468.549 83.1463 468.524 82.9895C468.5 82.8464 468.448 82.7096 468.371 82.5871C468.294 82.4645 468.194 82.3587 468.076 82.2759C467.891 82.1371 467.666 82.0626 467.435 82.0636C467.206 82.0633 466.982 82.1361 466.796 82.2718C466.61 82.4075 466.471 82.599 466.399 82.819C466.328 83.039 466.327 83.2762 466.397 83.4966C466.468 83.7171 466.605 83.9095 466.79 84.0463C466.977 84.1812 467.201 84.2539 467.431 84.2541H467.444ZM466.607 80.5642C466.312 80.5636 466.022 80.6333 465.76 80.7675C465.497 80.9017 465.27 81.0967 465.097 81.3365L460.617 87.4833C460.472 87.6829 460.368 87.9093 460.309 88.1497C460.251 88.39 460.24 88.6396 460.278 88.8841C460.315 89.1286 460.4 89.3633 460.527 89.5748C460.655 89.7862 460.822 89.9703 461.02 90.1164L462.777 91.4081C462.974 91.5548 463.198 91.6608 463.436 91.7198C463.674 91.7788 463.922 91.7897 464.164 91.7519C464.406 91.7141 464.639 91.6284 464.848 91.4996C465.057 91.3709 465.24 91.2016 465.384 91.0016L469.863 84.8502C470.008 84.6511 470.113 84.425 470.171 84.185C470.229 83.945 470.24 83.6958 470.203 83.4517C470.165 83.2075 470.08 82.9732 469.953 82.7621C469.826 82.5511 469.658 82.3674 469.46 82.2217L467.704 80.9255C467.386 80.6906 467.001 80.5641 466.607 80.5642ZM467.431 83.9334C467.237 83.9185 467.056 83.8304 466.924 83.6868C466.792 83.5432 466.719 83.3546 466.719 83.1588C466.719 82.9631 466.792 82.7745 466.924 82.6309C467.056 82.4873 467.237 82.3992 467.431 82.3843C467.592 82.3861 467.748 82.4382 467.879 82.5333C468.008 82.6302 468.104 82.7654 468.153 82.9199C468.202 83.0745 468.202 83.2407 468.152 83.3952C468.103 83.5496 468.007 83.6846 467.877 83.7811C467.748 83.8777 467.592 83.9309 467.431 83.9334Z" fill="black"/>
<path d="M461.965 88.3957C461.931 88.3957 461.898 88.3846 461.871 88.364C461.836 88.3387 461.813 88.3008 461.807 88.2586C461.8 88.2163 461.81 88.173 461.835 88.1382L464.384 84.629C464.409 84.5944 464.446 84.5712 464.488 84.5645C464.53 84.5577 464.573 84.5679 464.608 84.5928C464.642 84.6189 464.665 84.6576 464.672 84.7007C464.679 84.7437 464.669 84.7876 464.644 84.8232L462.095 88.3279C462.08 88.349 462.061 88.3662 462.038 88.378C462.015 88.3898 461.99 88.3959 461.965 88.3957Z" fill="black"/>
<path d="M464.313 90.1345C464.277 90.1351 464.243 90.124 464.214 90.1029C464.197 90.0904 464.183 90.0745 464.172 90.0563C464.161 90.0381 464.154 90.0178 464.151 89.9967C464.148 89.9756 464.149 89.9541 464.155 89.9336C464.16 89.913 464.17 89.8938 464.183 89.877L466.23 87.0543C466.256 87.0194 466.295 86.9961 466.337 86.9894C466.38 86.9826 466.423 86.9929 466.459 87.0181C466.476 87.0306 466.49 87.0464 466.501 87.0647C466.512 87.0829 466.519 87.1032 466.522 87.1243C466.525 87.1454 466.524 87.1669 466.518 87.1874C466.513 87.208 466.503 87.2272 466.49 87.2439L464.443 90.0712C464.427 90.091 464.408 90.1069 464.385 90.1179C464.363 90.1288 464.338 90.1345 464.313 90.1345Z" fill="black"/>
<path d="M463.134 89.2673C463.099 89.2658 463.065 89.2549 463.036 89.2357C463.018 89.2232 463.004 89.2074 462.993 89.1891C462.982 89.1709 462.975 89.1506 462.972 89.1295C462.969 89.1084 462.971 89.087 462.976 89.0664C462.982 89.0458 462.991 89.0266 463.004 89.0099L466.14 84.7147C466.152 84.6975 466.168 84.6829 466.186 84.6719C466.204 84.661 466.224 84.6538 466.245 84.6508C466.266 84.6479 466.288 84.6492 466.308 84.6548C466.328 84.6603 466.347 84.67 466.364 84.6831C466.398 84.7084 466.421 84.7463 466.428 84.7886C466.435 84.8309 466.425 84.8741 466.4 84.9089L463.286 89.1996C463.27 89.2241 463.247 89.2435 463.22 89.2555C463.193 89.2675 463.163 89.2716 463.134 89.2673Z" fill="black"/>
<path d="M467.879 92.483C467.489 92.4829 467.111 92.3486 466.807 92.1022C466.503 91.8557 466.292 91.5121 466.208 91.1281L464.694 83.6579C464.649 83.4358 464.649 83.207 464.693 82.9847C464.736 82.7624 464.823 82.5509 464.948 82.3625C465.073 82.1741 465.233 82.0124 465.42 81.8867C465.607 81.761 465.817 81.6738 466.038 81.63L468.17 81.1784C468.282 81.1552 468.396 81.1431 468.51 81.1423C468.9 81.1432 469.278 81.2779 469.582 81.5241C469.885 81.7704 470.097 82.1136 470.181 82.4972L471.691 89.9629C471.736 90.1851 471.737 90.4141 471.694 90.6366C471.65 90.8591 471.563 91.0708 471.439 91.2593C471.314 91.4479 471.153 91.6096 470.965 91.7352C470.778 91.8607 470.568 91.9476 470.347 91.9907L468.215 92.4424C468.103 92.4678 467.989 92.4799 467.874 92.4785L467.879 92.483ZM467.431 82.2217C467.368 82.215 467.305 82.215 467.243 82.2217C467.124 82.2458 467.011 82.2933 466.91 82.3615C466.809 82.4297 466.723 82.5173 466.656 82.6191C466.564 82.7601 466.511 82.9237 466.503 83.0925C466.496 83.2612 466.534 83.4289 466.614 83.5776C466.693 83.7263 466.811 83.8505 466.955 83.937C467.099 84.0235 467.263 84.0691 467.431 84.0689C467.492 84.0753 467.553 84.0753 467.614 84.0689C467.84 84.0235 468.041 83.8949 468.178 83.7082C468.315 83.5216 468.379 83.2901 468.356 83.0591C468.333 82.828 468.225 82.6138 468.054 82.4581C467.883 82.3025 467.661 82.2166 467.431 82.2172V82.2217Z" fill="#686868"/>
<path d="M468.497 81.2958C468.853 81.2975 469.197 81.4222 469.473 81.6491C469.748 81.876 469.938 82.1913 470.011 82.5424L471.521 90.008C471.562 90.2082 471.564 90.4147 471.526 90.6155C471.488 90.8163 471.411 91.0076 471.299 91.1784C471.187 91.3492 471.044 91.4961 470.876 91.6107C470.708 91.7253 470.519 91.8053 470.32 91.8462L468.188 92.2979C468.086 92.3196 467.983 92.3301 467.879 92.3295C467.524 92.328 467.18 92.2039 466.904 91.978C466.629 91.752 466.438 91.4377 466.365 91.0875L464.855 83.6173C464.773 83.2136 464.853 82.7936 465.079 82.4498C465.304 82.1059 465.655 81.8663 466.055 81.7836L468.188 81.332C468.29 81.3124 468.393 81.3018 468.497 81.3003V81.2958ZM467.449 84.2541C467.521 84.2553 467.593 84.2478 467.664 84.2315C467.946 84.1727 468.193 84.004 468.353 83.7621C468.512 83.5203 468.57 83.2247 468.515 82.9398C468.464 82.6924 468.331 82.4701 468.136 82.3104C467.942 82.1508 467.699 82.0636 467.449 82.0636C467.376 82.0569 467.302 82.0569 467.229 82.0636C466.965 82.1185 466.731 82.2701 466.571 82.4893C466.412 82.7084 466.339 82.9794 466.366 83.2498C466.393 83.5201 466.519 83.7707 466.719 83.9529C466.919 84.1351 467.179 84.236 467.449 84.236V84.2541ZM468.497 80.9616C468.372 80.9606 468.247 80.9727 468.125 80.9977L465.993 81.4494C465.507 81.5495 465.081 81.8398 464.808 82.2565C464.535 82.6732 464.438 83.1822 464.537 83.6715L466.051 91.1371C466.138 91.5615 466.367 91.9429 466.7 92.2168C467.032 92.4908 467.449 92.6406 467.879 92.6411C468.003 92.6401 468.128 92.628 468.251 92.605L470.383 92.1533C470.868 92.0522 471.293 91.7616 471.566 91.3452C471.839 90.9288 471.937 90.4204 471.839 89.9312L470.325 82.4656C470.238 82.0412 470.009 81.6599 469.676 81.3859C469.343 81.1119 468.927 80.9621 468.497 80.9616ZM467.449 83.9154C467.257 83.9178 467.072 83.8478 466.929 83.7191C466.786 83.5904 466.696 83.4124 466.677 83.2202C466.658 83.028 466.711 82.8355 466.825 82.6808C466.94 82.526 467.108 82.4202 467.296 82.3843C467.347 82.3777 467.398 82.3777 467.449 82.3843C467.64 82.3818 467.826 82.4518 467.969 82.5805C468.112 82.7092 468.202 82.8872 468.221 83.0795C468.24 83.2717 468.187 83.4642 468.072 83.6189C467.957 83.7736 467.789 83.8794 467.601 83.9154C467.55 83.9195 467.499 83.9195 467.449 83.9154Z" fill="black"/>
<path d="M467.479 90.8345C467.442 90.8344 467.405 90.8214 467.376 90.7976C467.347 90.7738 467.326 90.7406 467.318 90.7036L466.445 86.4446C466.438 86.4229 466.435 86.4 466.437 86.3773C466.44 86.3546 466.447 86.3326 466.458 86.3128C466.469 86.293 466.484 86.2759 466.503 86.2624C466.521 86.2489 466.542 86.2395 466.564 86.2348C466.586 86.23 466.609 86.2299 466.631 86.2347C466.653 86.2394 466.674 86.2487 466.692 86.2621C466.711 86.2755 466.726 86.2927 466.737 86.3124C466.749 86.3322 466.756 86.3541 466.758 86.3768L467.623 90.6403C467.631 90.6822 467.622 90.7256 467.599 90.7611C467.575 90.7965 467.539 90.8213 467.497 90.83L467.479 90.8345Z" fill="black"/>
<path d="M470.342 90.2429C470.304 90.2427 470.268 90.2297 470.239 90.2059C470.209 90.1821 470.189 90.1489 470.181 90.1119L469.486 86.6839C469.478 86.6414 469.487 86.5973 469.511 86.5613C469.535 86.5253 469.572 86.5004 469.614 86.492C469.656 86.4836 469.7 86.4924 469.736 86.5166C469.771 86.5407 469.796 86.5782 469.804 86.6207L470.499 90.0487C470.507 90.0906 470.498 90.1339 470.475 90.1694C470.451 90.2049 470.415 90.2296 470.373 90.2384L470.342 90.2429Z" fill="black"/>
<path d="M468.908 90.5365C468.872 90.5372 468.836 90.525 468.807 90.5019C468.779 90.4788 468.759 90.4462 468.752 90.41L467.694 85.198C467.686 85.1555 467.695 85.1114 467.719 85.0754C467.743 85.0394 467.78 85.0145 467.822 85.0061C467.864 84.9977 467.908 85.0065 467.944 85.0307C467.979 85.0548 468.004 85.0923 468.013 85.1348L469.065 90.3423C469.07 90.3633 469.07 90.3851 469.066 90.4063C469.063 90.4275 469.055 90.4478 469.043 90.4658C469.031 90.4839 469.016 90.4995 468.998 90.5116C468.981 90.5237 468.961 90.5322 468.94 90.5365H468.908Z" fill="black"/>
<path d="M467.497 83.554C467.405 83.5532 467.315 83.5312 467.232 83.4897C467.15 83.4482 467.078 83.3883 467.022 83.3147C460.348 74.1327 457.808 63.1126 457.785 62.9907C457.768 62.9154 457.766 62.8374 457.779 62.7612C457.792 62.685 457.819 62.6122 457.86 62.5467C457.901 62.4813 457.954 62.4246 458.016 62.3799C458.079 62.3352 458.149 62.3033 458.224 62.2861C458.299 62.2689 458.376 62.2667 458.452 62.2797C458.527 62.2926 458.6 62.3204 458.664 62.3615C458.729 62.4026 458.786 62.4562 458.83 62.5192C458.874 62.5822 458.906 62.6534 458.923 62.7287C458.923 62.8371 461.436 73.6269 467.968 82.6011C468.058 82.7279 468.096 82.8856 468.073 83.0402C468.049 83.1948 467.966 83.3339 467.842 83.4276C467.743 83.5053 467.623 83.5495 467.497 83.554Z" fill="black"/>
</svg>
